<?xml version="1.0" encoding="utf-8" standalone="no"?>
<!DOCTYPE svg PUBLIC "-//W3C//DTD SVG 1.1//EN"
  "http://www.w3.org/Graphics/SVG/1.1/DTD/svg11.dtd">
<!-- Created with matplotlib (http://matplotlib.org/) -->
<svg height="705.6pt" version="1.1" viewBox="0 0 1382.4 705.6" width="1382.4pt" xmlns="http://www.w3.org/2000/svg" xmlns:xlink="http://www.w3.org/1999/xlink">
 <defs>
  <style type="text/css">
*{stroke-linecap:butt;stroke-linejoin:round;}
  </style>
 </defs>
 <g id="figure_1">
  <g id="patch_1">
   <path d="M 0 705.6 
L 1382.4 705.6 
L 1382.4 0 
L 0 0 
z
" style="fill:#ffffff;"/>
  </g>
  <g id="axes_1">
   <g id="patch_2">
    <path d="M 587.52 635.04 
L 794.88 635.04 
L 794.88 70.56 
L 587.52 70.56 
z
" style="fill:#ffffff;"/>
   </g>
   <g id="patch_3">
    <path clip-path="url(#p6e0e5c6e34)" d="M 587.52 609.381818 
L 627.037209 609.381818 
L 627.037209 604.540652 
L 587.52 604.540652 
z
" style="fill:#ff0000;"/>
   </g>
   <g id="patch_4">
    <path clip-path="url(#p6e0e5c6e34)" d="M 587.52 590.017153 
L 627.818612 590.017153 
L 627.818612 585.175986 
L 587.52 585.175986 
z
" style="fill:#ff0000;"/>
   </g>
   <g id="patch_5">
    <path clip-path="url(#p6e0e5c6e34)" d="M 587.52 570.652487 
L 697.122489 570.652487 
L 697.122489 565.811321 
L 587.52 565.811321 
z
" style="fill:#ff0000;"/>
   </g>
   <g id="patch_6">
    <path clip-path="url(#p6e0e5c6e34)" d="M 587.52 551.287822 
L 698.395435 551.287822 
L 698.395435 546.446655 
L 587.52 546.446655 
z
" style="fill:#ff0000;"/>
   </g>
   <g id="patch_7">
    <path clip-path="url(#p6e0e5c6e34)" d="M 587.52 531.923156 
L 643.74781 531.923156 
L 643.74781 527.08199 
L 587.52 527.08199 
z
" style="fill:#ff0000;"/>
   </g>
   <g id="patch_8">
    <path clip-path="url(#p6e0e5c6e34)" d="M 587.52 512.558491 
L 642.929888 512.558491 
L 642.929888 507.717324 
L 587.52 507.717324 
z
" style="fill:#ff0000;"/>
   </g>
   <g id="patch_9">
    <path clip-path="url(#p6e0e5c6e34)" d="M 587.52 493.193825 
L 653.562475 493.193825 
L 653.562475 488.352659 
L 587.52 488.352659 
z
" style="fill:#ff0000;"/>
   </g>
   <g id="patch_10">
    <path clip-path="url(#p6e0e5c6e34)" d="M 587.52 473.82916 
L 653.580582 473.82916 
L 653.580582 468.987993 
L 587.52 468.987993 
z
" style="fill:#ff0000;"/>
   </g>
   <g id="patch_11">
    <path clip-path="url(#p6e0e5c6e34)" d="M 587.52 454.464494 
L 623.462486 454.464494 
L 623.462486 449.623328 
L 587.52 449.623328 
z
" style="fill:#ff0000;"/>
   </g>
   <g id="patch_12">
    <path clip-path="url(#p6e0e5c6e34)" d="M 587.52 435.099828 
L 623.862517 435.099828 
L 623.862517 430.258662 
L 587.52 430.258662 
z
" style="fill:#ff0000;"/>
   </g>
   <g id="patch_13">
    <path clip-path="url(#p6e0e5c6e34)" d="M 587.52 415.735163 
L 643.295658 415.735163 
L 643.295658 410.893997 
L 587.52 410.893997 
z
" style="fill:#ff0000;"/>
   </g>
   <g id="patch_14">
    <path clip-path="url(#p6e0e5c6e34)" d="M 587.52 396.370497 
L 643.7181 396.370497 
L 643.7181 391.529331 
L 587.52 391.529331 
z
" style="fill:#ff0000;"/>
   </g>
   <g id="patch_15">
    <path clip-path="url(#p6e0e5c6e34)" d="M 587.52 377.005832 
L 759.958217 377.005832 
L 759.958217 372.164666 
L 587.52 372.164666 
z
" style="fill:#ff0000;"/>
   </g>
   <g id="patch_16">
    <path clip-path="url(#p6e0e5c6e34)" d="M 587.52 357.641166 
L 758.752431 357.641166 
L 758.752431 352.8 
L 587.52 352.8 
z
" style="fill:#ff0000;"/>
   </g>
   <g id="patch_17">
    <path clip-path="url(#p6e0e5c6e34)" d="M 587.52 338.276501 
L 614.733042 338.276501 
L 614.733042 333.435334 
L 587.52 333.435334 
z
" style="fill:#ff0000;"/>
   </g>
   <g id="patch_18">
    <path clip-path="url(#p6e0e5c6e34)" d="M 587.52 318.911835 
L 616.641287 318.911835 
L 616.641287 314.070669 
L 587.52 314.070669 
z
" style="fill:#ff0000;"/>
   </g>
   <g id="patch_19">
    <path clip-path="url(#p6e0e5c6e34)" d="M 587.52 299.54717 
L 608.194311 299.54717 
L 608.194311 294.706003 
L 587.52 294.706003 
z
" style="fill:#ff0000;"/>
   </g>
   <g id="patch_20">
    <path clip-path="url(#p6e0e5c6e34)" d="M 587.52 280.182504 
L 606.075562 280.182504 
L 606.075562 275.341338 
L 587.52 275.341338 
z
" style="fill:#ff0000;"/>
   </g>
   <g id="patch_21">
    <path clip-path="url(#p6e0e5c6e34)" d="M 587.52 260.817839 
L 597.631318 260.817839 
L 597.631318 255.976672 
L 587.52 255.976672 
z
" style="fill:#ff0000;"/>
   </g>
   <g id="patch_22">
    <path clip-path="url(#p6e0e5c6e34)" d="M 587.52 241.453173 
L 597.545733 241.453173 
L 597.545733 236.612007 
L 587.52 236.612007 
z
" style="fill:#ff0000;"/>
   </g>
   <g id="patch_23">
    <path clip-path="url(#p6e0e5c6e34)" d="M 587.52 222.088508 
L 587.72916 222.088508 
L 587.72916 217.247341 
L 587.52 217.247341 
z
" style="fill:#ff0000;"/>
   </g>
   <g id="patch_24">
    <path clip-path="url(#p6e0e5c6e34)" d="M 587.52 202.723842 
L 587.725934 202.723842 
L 587.725934 197.882676 
L 587.52 197.882676 
z
" style="fill:#ff0000;"/>
   </g>
   <g id="patch_25">
    <path clip-path="url(#p6e0e5c6e34)" d="M 587.52 183.359177 
L 618.667233 183.359177 
L 618.667233 178.51801 
L 587.52 178.51801 
z
" style="fill:#ff0000;"/>
   </g>
   <g id="patch_26">
    <path clip-path="url(#p6e0e5c6e34)" d="M 587.52 163.994511 
L 618.245477 163.994511 
L 618.245477 159.153345 
L 587.52 159.153345 
z
" style="fill:#ff0000;"/>
   </g>
   <g id="patch_27">
    <path clip-path="url(#p6e0e5c6e34)" d="M 587.52 144.629846 
L 591.065376 144.629846 
L 591.065376 139.788679 
L 587.52 139.788679 
z
" style="fill:#ff0000;"/>
   </g>
   <g id="patch_28">
    <path clip-path="url(#p6e0e5c6e34)" d="M 587.52 125.26518 
L 590.950383 125.26518 
L 590.950383 120.424014 
L 587.52 120.424014 
z
" style="fill:#ff0000;"/>
   </g>
   <g id="patch_29">
    <path clip-path="url(#p6e0e5c6e34)" d="M 587.52 105.900515 
L 715.541082 105.900515 
L 715.541082 101.059348 
L 587.52 101.059348 
z
" style="fill:#ff0000;"/>
   </g>
   <g id="patch_30">
    <path clip-path="url(#p6e0e5c6e34)" d="M 587.52 604.540652 
L 614.979207 604.540652 
L 614.979207 599.699485 
L 587.52 599.699485 
z
" style="fill:#008000;"/>
   </g>
   <g id="patch_31">
    <path clip-path="url(#p6e0e5c6e34)" d="M 587.52 585.175986 
L 613.086688 585.175986 
L 613.086688 580.33482 
L 587.52 580.33482 
z
" style="fill:#008000;"/>
   </g>
   <g id="patch_32">
    <path clip-path="url(#p6e0e5c6e34)" d="M 587.52 565.811321 
L 667.76305 565.811321 
L 667.76305 560.970154 
L 587.52 560.970154 
z
" style="fill:#008000;"/>
   </g>
   <g id="patch_33">
    <path clip-path="url(#p6e0e5c6e34)" d="M 587.52 546.446655 
L 666.697733 546.446655 
L 666.697733 541.605489 
L 587.52 541.605489 
z
" style="fill:#008000;"/>
   </g>
   <g id="patch_34">
    <path clip-path="url(#p6e0e5c6e34)" d="M 587.52 527.08199 
L 628.256203 527.08199 
L 628.256203 522.240823 
L 587.52 522.240823 
z
" style="fill:#008000;"/>
   </g>
   <g id="patch_35">
    <path clip-path="url(#p6e0e5c6e34)" d="M 587.52 507.717324 
L 628.025976 507.717324 
L 628.025976 502.876158 
L 587.52 502.876158 
z
" style="fill:#008000;"/>
   </g>
   <g id="patch_36">
    <path clip-path="url(#p6e0e5c6e34)" d="M 587.52 488.352659 
L 635.12629 488.352659 
L 635.12629 483.511492 
L 587.52 483.511492 
z
" style="fill:#008000;"/>
   </g>
   <g id="patch_37">
    <path clip-path="url(#p6e0e5c6e34)" d="M 587.52 468.987993 
L 634.946178 468.987993 
L 634.946178 464.146827 
L 587.52 464.146827 
z
" style="fill:#008000;"/>
   </g>
   <g id="patch_38">
    <path clip-path="url(#p6e0e5c6e34)" d="M 587.52 449.623328 
L 610.099341 449.623328 
L 610.099341 444.782161 
L 587.52 444.782161 
z
" style="fill:#008000;"/>
   </g>
   <g id="patch_39">
    <path clip-path="url(#p6e0e5c6e34)" d="M 587.52 430.258662 
L 610.587473 430.258662 
L 610.587473 425.417496 
L 587.52 425.417496 
z
" style="fill:#008000;"/>
   </g>
   <g id="patch_40">
    <path clip-path="url(#p6e0e5c6e34)" d="M 587.52 410.893997 
L 624.328527 410.893997 
L 624.328527 406.05283 
L 587.52 406.05283 
z
" style="fill:#008000;"/>
   </g>
   <g id="patch_41">
    <path clip-path="url(#p6e0e5c6e34)" d="M 587.52 391.529331 
L 624.677882 391.529331 
L 624.677882 386.688165 
L 587.52 386.688165 
z
" style="fill:#008000;"/>
   </g>
   <g id="patch_42">
    <path clip-path="url(#p6e0e5c6e34)" d="M 587.52 372.164666 
L 704.74359 372.164666 
L 704.74359 367.323499 
L 587.52 367.323499 
z
" style="fill:#008000;"/>
   </g>
   <g id="patch_43">
    <path clip-path="url(#p6e0e5c6e34)" d="M 587.52 352.8 
L 705.585676 352.8 
L 705.585676 347.958834 
L 587.52 347.958834 
z
" style="fill:#008000;"/>
   </g>
   <g id="patch_44">
    <path clip-path="url(#p6e0e5c6e34)" d="M 587.52 333.435334 
L 606.747363 333.435334 
L 606.747363 328.594168 
L 587.52 328.594168 
z
" style="fill:#008000;"/>
   </g>
   <g id="patch_45">
    <path clip-path="url(#p6e0e5c6e34)" d="M 587.52 314.070669 
L 605.73235 314.070669 
L 605.73235 309.229503 
L 587.52 309.229503 
z
" style="fill:#008000;"/>
   </g>
   <g id="patch_46">
    <path clip-path="url(#p6e0e5c6e34)" d="M 587.52 294.706003 
L 602.185029 294.706003 
L 602.185029 289.864837 
L 587.52 289.864837 
z
" style="fill:#008000;"/>
   </g>
   <g id="patch_47">
    <path clip-path="url(#p6e0e5c6e34)" d="M 587.52 275.341338 
L 602.44721 275.341338 
L 602.44721 270.500172 
L 587.52 270.500172 
z
" style="fill:#008000;"/>
   </g>
   <g id="patch_48">
    <path clip-path="url(#p6e0e5c6e34)" d="M 587.52 255.976672 
L 594.475186 255.976672 
L 594.475186 251.135506 
L 587.52 251.135506 
z
" style="fill:#008000;"/>
   </g>
   <g id="patch_49">
    <path clip-path="url(#p6e0e5c6e34)" d="M 587.52 236.612007 
L 594.975085 236.612007 
L 594.975085 231.77084 
L 587.52 231.77084 
z
" style="fill:#008000;"/>
   </g>
   <g id="patch_50">
    <path clip-path="url(#p6e0e5c6e34)" d="M 587.52 217.247341 
L 587.678979 217.247341 
L 587.678979 212.406175 
L 587.52 212.406175 
z
" style="fill:#008000;"/>
   </g>
   <g id="patch_51">
    <path clip-path="url(#p6e0e5c6e34)" d="M 587.52 197.882676 
L 587.681258 197.882676 
L 587.681258 193.041509 
L 587.52 193.041509 
z
" style="fill:#008000;"/>
   </g>
   <g id="patch_52">
    <path clip-path="url(#p6e0e5c6e34)" d="M 587.52 178.51801 
L 609.693294 178.51801 
L 609.693294 173.676844 
L 587.52 173.676844 
z
" style="fill:#008000;"/>
   </g>
   <g id="patch_53">
    <path clip-path="url(#p6e0e5c6e34)" d="M 587.52 159.153345 
L 609.306182 159.153345 
L 609.306182 154.312178 
L 587.52 154.312178 
z
" style="fill:#008000;"/>
   </g>
   <g id="patch_54">
    <path clip-path="url(#p6e0e5c6e34)" d="M 587.52 139.788679 
L 589.918084 139.788679 
L 589.918084 134.947513 
L 587.52 134.947513 
z
" style="fill:#008000;"/>
   </g>
   <g id="patch_55">
    <path clip-path="url(#p6e0e5c6e34)" d="M 587.52 120.424014 
L 590.105768 120.424014 
L 590.105768 115.582847 
L 587.52 115.582847 
z
" style="fill:#008000;"/>
   </g>
   <g id="patch_56">
    <path clip-path="url(#p6e0e5c6e34)" d="M 587.52 101.059348 
L 667.594971 101.059348 
L 667.594971 96.218182 
L 587.52 96.218182 
z
" style="fill:#008000;"/>
   </g>
   <g id="matplotlib.axis_1">
    <g id="xtick_1">
     <g id="line2d_1">
      <defs>
       <path d="M 0 0 
L 0 3.5 
" id="m2574a5dd7f" style="stroke:#000000;stroke-width:0.8;"/>
      </defs>
      <g>
       <use style="stroke:#000000;stroke-width:0.8;" x="587.52" xlink:href="#m2574a5dd7f" y="635.04"/>
      </g>
     </g>
     <g id="text_1">
      <!-- 0 -->
      <defs>
       <path d="M 31.78125 66.40625 
Q 24.171875 66.40625 20.328125 58.90625 
Q 16.5 51.421875 16.5 36.375 
Q 16.5 21.390625 20.328125 13.890625 
Q 24.171875 6.390625 31.78125 6.390625 
Q 39.453125 6.390625 43.28125 13.890625 
Q 47.125 21.390625 47.125 36.375 
Q 47.125 51.421875 43.28125 58.90625 
Q 39.453125 66.40625 31.78125 66.40625 
z
M 31.78125 74.21875 
Q 44.046875 74.21875 50.515625 64.515625 
Q 56.984375 54.828125 56.984375 36.375 
Q 56.984375 17.96875 50.515625 8.265625 
Q 44.046875 -1.421875 31.78125 -1.421875 
Q 19.53125 -1.421875 13.0625 8.265625 
Q 6.59375 17.96875 6.59375 36.375 
Q 6.59375 54.828125 13.0625 64.515625 
Q 19.53125 74.21875 31.78125 74.21875 
z
" id="DejaVuSans-30"/>
      </defs>
      <g transform="translate(584.33875 649.638438)scale(0.1 -0.1)">
       <use xlink:href="#DejaVuSans-30"/>
      </g>
     </g>
    </g>
    <g id="xtick_2">
     <g id="line2d_2">
      <g>
       <use style="stroke:#000000;stroke-width:0.8;" x="628.364454" xlink:href="#m2574a5dd7f" y="635.04"/>
      </g>
     </g>
     <g id="text_2">
      <!-- 10 -->
      <defs>
       <path d="M 12.40625 8.296875 
L 28.515625 8.296875 
L 28.515625 63.921875 
L 10.984375 60.40625 
L 10.984375 69.390625 
L 28.421875 72.90625 
L 38.28125 72.90625 
L 38.28125 8.296875 
L 54.390625 8.296875 
L 54.390625 0 
L 12.40625 0 
z
" id="DejaVuSans-31"/>
      </defs>
      <g transform="translate(622.001954 649.638438)scale(0.1 -0.1)">
       <use xlink:href="#DejaVuSans-31"/>
       <use x="63.623047" xlink:href="#DejaVuSans-30"/>
      </g>
     </g>
    </g>
    <g id="xtick_3">
     <g id="line2d_3">
      <g>
       <use style="stroke:#000000;stroke-width:0.8;" x="669.208907" xlink:href="#m2574a5dd7f" y="635.04"/>
      </g>
     </g>
     <g id="text_3">
      <!-- 20 -->
      <defs>
       <path d="M 19.1875 8.296875 
L 53.609375 8.296875 
L 53.609375 0 
L 7.328125 0 
L 7.328125 8.296875 
Q 12.9375 14.109375 22.625 23.890625 
Q 32.328125 33.6875 34.8125 36.53125 
Q 39.546875 41.84375 41.421875 45.53125 
Q 43.3125 49.21875 43.3125 52.78125 
Q 43.3125 58.59375 39.234375 62.25 
Q 35.15625 65.921875 28.609375 65.921875 
Q 23.96875 65.921875 18.8125 64.3125 
Q 13.671875 62.703125 7.8125 59.421875 
L 7.8125 69.390625 
Q 13.765625 71.78125 18.9375 73 
Q 24.125 74.21875 28.421875 74.21875 
Q 39.75 74.21875 46.484375 68.546875 
Q 53.21875 62.890625 53.21875 53.421875 
Q 53.21875 48.921875 51.53125 44.890625 
Q 49.859375 40.875 45.40625 35.40625 
Q 44.1875 33.984375 37.640625 27.21875 
Q 31.109375 20.453125 19.1875 8.296875 
z
" id="DejaVuSans-32"/>
      </defs>
      <g transform="translate(662.846407 649.638438)scale(0.1 -0.1)">
       <use xlink:href="#DejaVuSans-32"/>
       <use x="63.623047" xlink:href="#DejaVuSans-30"/>
      </g>
     </g>
    </g>
    <g id="xtick_4">
     <g id="line2d_4">
      <g>
       <use style="stroke:#000000;stroke-width:0.8;" x="710.053361" xlink:href="#m2574a5dd7f" y="635.04"/>
      </g>
     </g>
     <g id="text_4">
      <!-- 30 -->
      <defs>
       <path d="M 40.578125 39.3125 
Q 47.65625 37.796875 51.625 33 
Q 55.609375 28.21875 55.609375 21.1875 
Q 55.609375 10.40625 48.1875 4.484375 
Q 40.765625 -1.421875 27.09375 -1.421875 
Q 22.515625 -1.421875 17.65625 -0.515625 
Q 12.796875 0.390625 7.625 2.203125 
L 7.625 11.71875 
Q 11.71875 9.328125 16.59375 8.109375 
Q 21.484375 6.890625 26.8125 6.890625 
Q 36.078125 6.890625 40.9375 10.546875 
Q 45.796875 14.203125 45.796875 21.1875 
Q 45.796875 27.640625 41.28125 31.265625 
Q 36.765625 34.90625 28.71875 34.90625 
L 20.21875 34.90625 
L 20.21875 43.015625 
L 29.109375 43.015625 
Q 36.375 43.015625 40.234375 45.921875 
Q 44.09375 48.828125 44.09375 54.296875 
Q 44.09375 59.90625 40.109375 62.90625 
Q 36.140625 65.921875 28.71875 65.921875 
Q 24.65625 65.921875 20.015625 65.03125 
Q 15.375 64.15625 9.8125 62.3125 
L 9.8125 71.09375 
Q 15.4375 72.65625 20.34375 73.4375 
Q 25.25 74.21875 29.59375 74.21875 
Q 40.828125 74.21875 47.359375 69.109375 
Q 53.90625 64.015625 53.90625 55.328125 
Q 53.90625 49.265625 50.4375 45.09375 
Q 46.96875 40.921875 40.578125 39.3125 
z
" id="DejaVuSans-33"/>
      </defs>
      <g transform="translate(703.690861 649.638438)scale(0.1 -0.1)">
       <use xlink:href="#DejaVuSans-33"/>
       <use x="63.623047" xlink:href="#DejaVuSans-30"/>
      </g>
     </g>
    </g>
    <g id="xtick_5">
     <g id="line2d_5">
      <g>
       <use style="stroke:#000000;stroke-width:0.8;" x="750.897814" xlink:href="#m2574a5dd7f" y="635.04"/>
      </g>
     </g>
     <g id="text_5">
      <!-- 40 -->
      <defs>
       <path d="M 37.796875 64.3125 
L 12.890625 25.390625 
L 37.796875 25.390625 
z
M 35.203125 72.90625 
L 47.609375 72.90625 
L 47.609375 25.390625 
L 58.015625 25.390625 
L 58.015625 17.1875 
L 47.609375 17.1875 
L 47.609375 0 
L 37.796875 0 
L 37.796875 17.1875 
L 4.890625 17.1875 
L 4.890625 26.703125 
z
" id="DejaVuSans-34"/>
      </defs>
      <g transform="translate(744.535314 649.638438)scale(0.1 -0.1)">
       <use xlink:href="#DejaVuSans-34"/>
       <use x="63.623047" xlink:href="#DejaVuSans-30"/>
      </g>
     </g>
    </g>
    <g id="xtick_6">
     <g id="line2d_6">
      <g>
       <use style="stroke:#000000;stroke-width:0.8;" x="791.742268" xlink:href="#m2574a5dd7f" y="635.04"/>
      </g>
     </g>
     <g id="text_6">
      <!-- 50 -->
      <defs>
       <path d="M 10.796875 72.90625 
L 49.515625 72.90625 
L 49.515625 64.59375 
L 19.828125 64.59375 
L 19.828125 46.734375 
Q 21.96875 47.46875 24.109375 47.828125 
Q 26.265625 48.1875 28.421875 48.1875 
Q 40.625 48.1875 47.75 41.5 
Q 54.890625 34.8125 54.890625 23.390625 
Q 54.890625 11.625 47.5625 5.09375 
Q 40.234375 -1.421875 26.90625 -1.421875 
Q 22.3125 -1.421875 17.546875 -0.640625 
Q 12.796875 0.140625 7.71875 1.703125 
L 7.71875 11.625 
Q 12.109375 9.234375 16.796875 8.0625 
Q 21.484375 6.890625 26.703125 6.890625 
Q 35.15625 6.890625 40.078125 11.328125 
Q 45.015625 15.765625 45.015625 23.390625 
Q 45.015625 31 40.078125 35.4375 
Q 35.15625 39.890625 26.703125 39.890625 
Q 22.75 39.890625 18.8125 39.015625 
Q 14.890625 38.140625 10.796875 36.28125 
z
" id="DejaVuSans-35"/>
      </defs>
      <g transform="translate(785.379768 649.638438)scale(0.1 -0.1)">
       <use xlink:href="#DejaVuSans-35"/>
       <use x="63.623047" xlink:href="#DejaVuSans-30"/>
      </g>
     </g>
    </g>
    <g id="text_7">
     <!-- Time (in ms) -->
     <defs>
      <path d="M -0.296875 72.90625 
L 61.375 72.90625 
L 61.375 64.59375 
L 35.5 64.59375 
L 35.5 0 
L 25.59375 0 
L 25.59375 64.59375 
L -0.296875 64.59375 
z
" id="DejaVuSans-54"/>
      <path d="M 9.421875 54.6875 
L 18.40625 54.6875 
L 18.40625 0 
L 9.421875 0 
z
M 9.421875 75.984375 
L 18.40625 75.984375 
L 18.40625 64.59375 
L 9.421875 64.59375 
z
" id="DejaVuSans-69"/>
      <path d="M 52 44.1875 
Q 55.375 50.25 60.0625 53.125 
Q 64.75 56 71.09375 56 
Q 79.640625 56 84.28125 50.015625 
Q 88.921875 44.046875 88.921875 33.015625 
L 88.921875 0 
L 79.890625 0 
L 79.890625 32.71875 
Q 79.890625 40.578125 77.09375 44.375 
Q 74.3125 48.1875 68.609375 48.1875 
Q 61.625 48.1875 57.5625 43.546875 
Q 53.515625 38.921875 53.515625 30.90625 
L 53.515625 0 
L 44.484375 0 
L 44.484375 32.71875 
Q 44.484375 40.625 41.703125 44.40625 
Q 38.921875 48.1875 33.109375 48.1875 
Q 26.21875 48.1875 22.15625 43.53125 
Q 18.109375 38.875 18.109375 30.90625 
L 18.109375 0 
L 9.078125 0 
L 9.078125 54.6875 
L 18.109375 54.6875 
L 18.109375 46.1875 
Q 21.1875 51.21875 25.484375 53.609375 
Q 29.78125 56 35.6875 56 
Q 41.65625 56 45.828125 52.96875 
Q 50 49.953125 52 44.1875 
z
" id="DejaVuSans-6d"/>
      <path d="M 56.203125 29.59375 
L 56.203125 25.203125 
L 14.890625 25.203125 
Q 15.484375 15.921875 20.484375 11.0625 
Q 25.484375 6.203125 34.421875 6.203125 
Q 39.59375 6.203125 44.453125 7.46875 
Q 49.3125 8.734375 54.109375 11.28125 
L 54.109375 2.78125 
Q 49.265625 0.734375 44.1875 -0.34375 
Q 39.109375 -1.421875 33.890625 -1.421875 
Q 20.796875 -1.421875 13.15625 6.1875 
Q 5.515625 13.8125 5.515625 26.8125 
Q 5.515625 40.234375 12.765625 48.109375 
Q 20.015625 56 32.328125 56 
Q 43.359375 56 49.78125 48.890625 
Q 56.203125 41.796875 56.203125 29.59375 
z
M 47.21875 32.234375 
Q 47.125 39.59375 43.09375 43.984375 
Q 39.0625 48.390625 32.421875 48.390625 
Q 24.90625 48.390625 20.390625 44.140625 
Q 15.875 39.890625 15.1875 32.171875 
z
" id="DejaVuSans-65"/>
      <path id="DejaVuSans-20"/>
      <path d="M 31 75.875 
Q 24.46875 64.65625 21.28125 53.65625 
Q 18.109375 42.671875 18.109375 31.390625 
Q 18.109375 20.125 21.3125 9.0625 
Q 24.515625 -2 31 -13.1875 
L 23.1875 -13.1875 
Q 15.875 -1.703125 12.234375 9.375 
Q 8.59375 20.453125 8.59375 31.390625 
Q 8.59375 42.28125 12.203125 53.3125 
Q 15.828125 64.359375 23.1875 75.875 
z
" id="DejaVuSans-28"/>
      <path d="M 54.890625 33.015625 
L 54.890625 0 
L 45.90625 0 
L 45.90625 32.71875 
Q 45.90625 40.484375 42.875 44.328125 
Q 39.84375 48.1875 33.796875 48.1875 
Q 26.515625 48.1875 22.3125 43.546875 
Q 18.109375 38.921875 18.109375 30.90625 
L 18.109375 0 
L 9.078125 0 
L 9.078125 54.6875 
L 18.109375 54.6875 
L 18.109375 46.1875 
Q 21.34375 51.125 25.703125 53.5625 
Q 30.078125 56 35.796875 56 
Q 45.21875 56 50.046875 50.171875 
Q 54.890625 44.34375 54.890625 33.015625 
z
" id="DejaVuSans-6e"/>
      <path d="M 44.28125 53.078125 
L 44.28125 44.578125 
Q 40.484375 46.53125 36.375 47.5 
Q 32.28125 48.484375 27.875 48.484375 
Q 21.1875 48.484375 17.84375 46.4375 
Q 14.5 44.390625 14.5 40.28125 
Q 14.5 37.15625 16.890625 35.375 
Q 19.28125 33.59375 26.515625 31.984375 
L 29.59375 31.296875 
Q 39.15625 29.25 43.1875 25.515625 
Q 47.21875 21.78125 47.21875 15.09375 
Q 47.21875 7.46875 41.1875 3.015625 
Q 35.15625 -1.421875 24.609375 -1.421875 
Q 20.21875 -1.421875 15.453125 -0.5625 
Q 10.6875 0.296875 5.421875 2 
L 5.421875 11.28125 
Q 10.40625 8.6875 15.234375 7.390625 
Q 20.0625 6.109375 24.8125 6.109375 
Q 31.15625 6.109375 34.5625 8.28125 
Q 37.984375 10.453125 37.984375 14.40625 
Q 37.984375 18.0625 35.515625 20.015625 
Q 33.0625 21.96875 24.703125 23.78125 
L 21.578125 24.515625 
Q 13.234375 26.265625 9.515625 29.90625 
Q 5.8125 33.546875 5.8125 39.890625 
Q 5.8125 47.609375 11.28125 51.796875 
Q 16.75 56 26.8125 56 
Q 31.78125 56 36.171875 55.265625 
Q 40.578125 54.546875 44.28125 53.078125 
z
" id="DejaVuSans-73"/>
      <path d="M 8.015625 75.875 
L 15.828125 75.875 
Q 23.140625 64.359375 26.78125 53.3125 
Q 30.421875 42.28125 30.421875 31.390625 
Q 30.421875 20.453125 26.78125 9.375 
Q 23.140625 -1.703125 15.828125 -13.1875 
L 8.015625 -13.1875 
Q 14.5 -2 17.703125 9.0625 
Q 20.90625 20.125 20.90625 31.390625 
Q 20.90625 42.671875 17.703125 53.65625 
Q 14.5 64.65625 8.015625 75.875 
z
" id="DejaVuSans-29"/>
     </defs>
     <g transform="translate(659.7 663.316563)scale(0.1 -0.1)">
      <use xlink:href="#DejaVuSans-54"/>
      <use x="61.037109" xlink:href="#DejaVuSans-69"/>
      <use x="88.820312" xlink:href="#DejaVuSans-6d"/>
      <use x="186.232422" xlink:href="#DejaVuSans-65"/>
      <use x="247.755859" xlink:href="#DejaVuSans-20"/>
      <use x="279.542969" xlink:href="#DejaVuSans-28"/>
      <use x="318.556641" xlink:href="#DejaVuSans-69"/>
      <use x="346.339844" xlink:href="#DejaVuSans-6e"/>
      <use x="409.71875" xlink:href="#DejaVuSans-20"/>
      <use x="441.505859" xlink:href="#DejaVuSans-6d"/>
      <use x="538.917969" xlink:href="#DejaVuSans-73"/>
      <use x="591.017578" xlink:href="#DejaVuSans-29"/>
     </g>
    </g>
   </g>
   <g id="matplotlib.axis_2">
    <g id="ytick_1">
     <g id="line2d_7">
      <defs>
       <path d="M 0 0 
L -3.5 0 
" id="m83e943914c" style="stroke:#000000;stroke-width:0.8;"/>
      </defs>
      <g>
       <use style="stroke:#000000;stroke-width:0.8;" x="587.52" xlink:href="#m83e943914c" y="602.120069"/>
      </g>
     </g>
     <g id="text_8">
      <!-- 01 -->
      <g transform="translate(567.795 605.919287)scale(0.1 -0.1)">
       <use xlink:href="#DejaVuSans-30"/>
       <use x="63.623047" xlink:href="#DejaVuSans-31"/>
      </g>
     </g>
    </g>
    <g id="ytick_2">
     <g id="line2d_8">
      <g>
       <use style="stroke:#000000;stroke-width:0.8;" x="587.52" xlink:href="#m83e943914c" y="582.755403"/>
      </g>
     </g>
     <g id="text_9">
      <!-- 02 -->
      <g transform="translate(567.795 586.554622)scale(0.1 -0.1)">
       <use xlink:href="#DejaVuSans-30"/>
       <use x="63.623047" xlink:href="#DejaVuSans-32"/>
      </g>
     </g>
    </g>
    <g id="ytick_3">
     <g id="line2d_9">
      <g>
       <use style="stroke:#000000;stroke-width:0.8;" x="587.52" xlink:href="#m83e943914c" y="563.390738"/>
      </g>
     </g>
     <g id="text_10">
      <!-- 03 -->
      <g transform="translate(567.795 567.189956)scale(0.1 -0.1)">
       <use xlink:href="#DejaVuSans-30"/>
       <use x="63.623047" xlink:href="#DejaVuSans-33"/>
      </g>
     </g>
    </g>
    <g id="ytick_4">
     <g id="line2d_10">
      <g>
       <use style="stroke:#000000;stroke-width:0.8;" x="587.52" xlink:href="#m83e943914c" y="544.026072"/>
      </g>
     </g>
     <g id="text_11">
      <!-- 04 -->
      <g transform="translate(567.795 547.825291)scale(0.1 -0.1)">
       <use xlink:href="#DejaVuSans-30"/>
       <use x="63.623047" xlink:href="#DejaVuSans-34"/>
      </g>
     </g>
    </g>
    <g id="ytick_5">
     <g id="line2d_11">
      <g>
       <use style="stroke:#000000;stroke-width:0.8;" x="587.52" xlink:href="#m83e943914c" y="524.661407"/>
      </g>
     </g>
     <g id="text_12">
      <!-- 05 -->
      <g transform="translate(567.795 528.460625)scale(0.1 -0.1)">
       <use xlink:href="#DejaVuSans-30"/>
       <use x="63.623047" xlink:href="#DejaVuSans-35"/>
      </g>
     </g>
    </g>
    <g id="ytick_6">
     <g id="line2d_12">
      <g>
       <use style="stroke:#000000;stroke-width:0.8;" x="587.52" xlink:href="#m83e943914c" y="505.296741"/>
      </g>
     </g>
     <g id="text_13">
      <!-- 06 -->
      <defs>
       <path d="M 33.015625 40.375 
Q 26.375 40.375 22.484375 35.828125 
Q 18.609375 31.296875 18.609375 23.390625 
Q 18.609375 15.53125 22.484375 10.953125 
Q 26.375 6.390625 33.015625 6.390625 
Q 39.65625 6.390625 43.53125 10.953125 
Q 47.40625 15.53125 47.40625 23.390625 
Q 47.40625 31.296875 43.53125 35.828125 
Q 39.65625 40.375 33.015625 40.375 
z
M 52.59375 71.296875 
L 52.59375 62.3125 
Q 48.875 64.0625 45.09375 64.984375 
Q 41.3125 65.921875 37.59375 65.921875 
Q 27.828125 65.921875 22.671875 59.328125 
Q 17.53125 52.734375 16.796875 39.40625 
Q 19.671875 43.65625 24.015625 45.921875 
Q 28.375 48.1875 33.59375 48.1875 
Q 44.578125 48.1875 50.953125 41.515625 
Q 57.328125 34.859375 57.328125 23.390625 
Q 57.328125 12.15625 50.6875 5.359375 
Q 44.046875 -1.421875 33.015625 -1.421875 
Q 20.359375 -1.421875 13.671875 8.265625 
Q 6.984375 17.96875 6.984375 36.375 
Q 6.984375 53.65625 15.1875 63.9375 
Q 23.390625 74.21875 37.203125 74.21875 
Q 40.921875 74.21875 44.703125 73.484375 
Q 48.484375 72.75 52.59375 71.296875 
z
" id="DejaVuSans-36"/>
      </defs>
      <g transform="translate(567.795 509.09596)scale(0.1 -0.1)">
       <use xlink:href="#DejaVuSans-30"/>
       <use x="63.623047" xlink:href="#DejaVuSans-36"/>
      </g>
     </g>
    </g>
    <g id="ytick_7">
     <g id="line2d_13">
      <g>
       <use style="stroke:#000000;stroke-width:0.8;" x="587.52" xlink:href="#m83e943914c" y="485.932075"/>
      </g>
     </g>
     <g id="text_14">
      <!-- 07 -->
      <defs>
       <path d="M 8.203125 72.90625 
L 55.078125 72.90625 
L 55.078125 68.703125 
L 28.609375 0 
L 18.3125 0 
L 43.21875 64.59375 
L 8.203125 64.59375 
z
" id="DejaVuSans-37"/>
      </defs>
      <g transform="translate(567.795 489.731294)scale(0.1 -0.1)">
       <use xlink:href="#DejaVuSans-30"/>
       <use x="63.623047" xlink:href="#DejaVuSans-37"/>
      </g>
     </g>
    </g>
    <g id="ytick_8">
     <g id="line2d_14">
      <g>
       <use style="stroke:#000000;stroke-width:0.8;" x="587.52" xlink:href="#m83e943914c" y="466.56741"/>
      </g>
     </g>
     <g id="text_15">
      <!-- 08 -->
      <defs>
       <path d="M 31.78125 34.625 
Q 24.75 34.625 20.71875 30.859375 
Q 16.703125 27.09375 16.703125 20.515625 
Q 16.703125 13.921875 20.71875 10.15625 
Q 24.75 6.390625 31.78125 6.390625 
Q 38.8125 6.390625 42.859375 10.171875 
Q 46.921875 13.96875 46.921875 20.515625 
Q 46.921875 27.09375 42.890625 30.859375 
Q 38.875 34.625 31.78125 34.625 
z
M 21.921875 38.8125 
Q 15.578125 40.375 12.03125 44.71875 
Q 8.5 49.078125 8.5 55.328125 
Q 8.5 64.0625 14.71875 69.140625 
Q 20.953125 74.21875 31.78125 74.21875 
Q 42.671875 74.21875 48.875 69.140625 
Q 55.078125 64.0625 55.078125 55.328125 
Q 55.078125 49.078125 51.53125 44.71875 
Q 48 40.375 41.703125 38.8125 
Q 48.828125 37.15625 52.796875 32.3125 
Q 56.78125 27.484375 56.78125 20.515625 
Q 56.78125 9.90625 50.3125 4.234375 
Q 43.84375 -1.421875 31.78125 -1.421875 
Q 19.734375 -1.421875 13.25 4.234375 
Q 6.78125 9.90625 6.78125 20.515625 
Q 6.78125 27.484375 10.78125 32.3125 
Q 14.796875 37.15625 21.921875 38.8125 
z
M 18.3125 54.390625 
Q 18.3125 48.734375 21.84375 45.5625 
Q 25.390625 42.390625 31.78125 42.390625 
Q 38.140625 42.390625 41.71875 45.5625 
Q 45.3125 48.734375 45.3125 54.390625 
Q 45.3125 60.0625 41.71875 63.234375 
Q 38.140625 66.40625 31.78125 66.40625 
Q 25.390625 66.40625 21.84375 63.234375 
Q 18.3125 60.0625 18.3125 54.390625 
z
" id="DejaVuSans-38"/>
      </defs>
      <g transform="translate(567.795 470.366629)scale(0.1 -0.1)">
       <use xlink:href="#DejaVuSans-30"/>
       <use x="63.623047" xlink:href="#DejaVuSans-38"/>
      </g>
     </g>
    </g>
    <g id="ytick_9">
     <g id="line2d_15">
      <g>
       <use style="stroke:#000000;stroke-width:0.8;" x="587.52" xlink:href="#m83e943914c" y="447.202744"/>
      </g>
     </g>
     <g id="text_16">
      <!-- 09 -->
      <defs>
       <path d="M 10.984375 1.515625 
L 10.984375 10.5 
Q 14.703125 8.734375 18.5 7.8125 
Q 22.3125 6.890625 25.984375 6.890625 
Q 35.75 6.890625 40.890625 13.453125 
Q 46.046875 20.015625 46.78125 33.40625 
Q 43.953125 29.203125 39.59375 26.953125 
Q 35.25 24.703125 29.984375 24.703125 
Q 19.046875 24.703125 12.671875 31.3125 
Q 6.296875 37.9375 6.296875 49.421875 
Q 6.296875 60.640625 12.9375 67.421875 
Q 19.578125 74.21875 30.609375 74.21875 
Q 43.265625 74.21875 49.921875 64.515625 
Q 56.59375 54.828125 56.59375 36.375 
Q 56.59375 19.140625 48.40625 8.859375 
Q 40.234375 -1.421875 26.421875 -1.421875 
Q 22.703125 -1.421875 18.890625 -0.6875 
Q 15.09375 0.046875 10.984375 1.515625 
z
M 30.609375 32.421875 
Q 37.25 32.421875 41.125 36.953125 
Q 45.015625 41.5 45.015625 49.421875 
Q 45.015625 57.28125 41.125 61.84375 
Q 37.25 66.40625 30.609375 66.40625 
Q 23.96875 66.40625 20.09375 61.84375 
Q 16.21875 57.28125 16.21875 49.421875 
Q 16.21875 41.5 20.09375 36.953125 
Q 23.96875 32.421875 30.609375 32.421875 
z
" id="DejaVuSans-39"/>
      </defs>
      <g transform="translate(567.795 451.001963)scale(0.1 -0.1)">
       <use xlink:href="#DejaVuSans-30"/>
       <use x="63.623047" xlink:href="#DejaVuSans-39"/>
      </g>
     </g>
    </g>
    <g id="ytick_10">
     <g id="line2d_16">
      <g>
       <use style="stroke:#000000;stroke-width:0.8;" x="587.52" xlink:href="#m83e943914c" y="427.838079"/>
      </g>
     </g>
     <g id="text_17">
      <!-- 10 -->
      <g transform="translate(567.795 431.637298)scale(0.1 -0.1)">
       <use xlink:href="#DejaVuSans-31"/>
       <use x="63.623047" xlink:href="#DejaVuSans-30"/>
      </g>
     </g>
    </g>
    <g id="ytick_11">
     <g id="line2d_17">
      <g>
       <use style="stroke:#000000;stroke-width:0.8;" x="587.52" xlink:href="#m83e943914c" y="408.473413"/>
      </g>
     </g>
     <g id="text_18">
      <!-- 11 -->
      <g transform="translate(567.795 412.272632)scale(0.1 -0.1)">
       <use xlink:href="#DejaVuSans-31"/>
       <use x="63.623047" xlink:href="#DejaVuSans-31"/>
      </g>
     </g>
    </g>
    <g id="ytick_12">
     <g id="line2d_18">
      <g>
       <use style="stroke:#000000;stroke-width:0.8;" x="587.52" xlink:href="#m83e943914c" y="389.108748"/>
      </g>
     </g>
     <g id="text_19">
      <!-- 12 -->
      <g transform="translate(567.795 392.907967)scale(0.1 -0.1)">
       <use xlink:href="#DejaVuSans-31"/>
       <use x="63.623047" xlink:href="#DejaVuSans-32"/>
      </g>
     </g>
    </g>
    <g id="ytick_13">
     <g id="line2d_19">
      <g>
       <use style="stroke:#000000;stroke-width:0.8;" x="587.52" xlink:href="#m83e943914c" y="369.744082"/>
      </g>
     </g>
     <g id="text_20">
      <!-- 13 -->
      <g transform="translate(567.795 373.543301)scale(0.1 -0.1)">
       <use xlink:href="#DejaVuSans-31"/>
       <use x="63.623047" xlink:href="#DejaVuSans-33"/>
      </g>
     </g>
    </g>
    <g id="ytick_14">
     <g id="line2d_20">
      <g>
       <use style="stroke:#000000;stroke-width:0.8;" x="587.52" xlink:href="#m83e943914c" y="350.379417"/>
      </g>
     </g>
     <g id="text_21">
      <!-- 14 -->
      <g transform="translate(567.795 354.178636)scale(0.1 -0.1)">
       <use xlink:href="#DejaVuSans-31"/>
       <use x="63.623047" xlink:href="#DejaVuSans-34"/>
      </g>
     </g>
    </g>
    <g id="ytick_15">
     <g id="line2d_21">
      <g>
       <use style="stroke:#000000;stroke-width:0.8;" x="587.52" xlink:href="#m83e943914c" y="331.014751"/>
      </g>
     </g>
     <g id="text_22">
      <!-- 15 -->
      <g transform="translate(567.795 334.81397)scale(0.1 -0.1)">
       <use xlink:href="#DejaVuSans-31"/>
       <use x="63.623047" xlink:href="#DejaVuSans-35"/>
      </g>
     </g>
    </g>
    <g id="ytick_16">
     <g id="line2d_22">
      <g>
       <use style="stroke:#000000;stroke-width:0.8;" x="587.52" xlink:href="#m83e943914c" y="311.650086"/>
      </g>
     </g>
     <g id="text_23">
      <!-- 16 -->
      <g transform="translate(567.795 315.449305)scale(0.1 -0.1)">
       <use xlink:href="#DejaVuSans-31"/>
       <use x="63.623047" xlink:href="#DejaVuSans-36"/>
      </g>
     </g>
    </g>
    <g id="ytick_17">
     <g id="line2d_23">
      <g>
       <use style="stroke:#000000;stroke-width:0.8;" x="587.52" xlink:href="#m83e943914c" y="292.28542"/>
      </g>
     </g>
     <g id="text_24">
      <!-- 17 -->
      <g transform="translate(567.795 296.084639)scale(0.1 -0.1)">
       <use xlink:href="#DejaVuSans-31"/>
       <use x="63.623047" xlink:href="#DejaVuSans-37"/>
      </g>
     </g>
    </g>
    <g id="ytick_18">
     <g id="line2d_24">
      <g>
       <use style="stroke:#000000;stroke-width:0.8;" x="587.52" xlink:href="#m83e943914c" y="272.920755"/>
      </g>
     </g>
     <g id="text_25">
      <!-- 18 -->
      <g transform="translate(567.795 276.719973)scale(0.1 -0.1)">
       <use xlink:href="#DejaVuSans-31"/>
       <use x="63.623047" xlink:href="#DejaVuSans-38"/>
      </g>
     </g>
    </g>
    <g id="ytick_19">
     <g id="line2d_25">
      <g>
       <use style="stroke:#000000;stroke-width:0.8;" x="587.52" xlink:href="#m83e943914c" y="253.556089"/>
      </g>
     </g>
     <g id="text_26">
      <!-- 19 -->
      <g transform="translate(567.795 257.355308)scale(0.1 -0.1)">
       <use xlink:href="#DejaVuSans-31"/>
       <use x="63.623047" xlink:href="#DejaVuSans-39"/>
      </g>
     </g>
    </g>
    <g id="ytick_20">
     <g id="line2d_26">
      <g>
       <use style="stroke:#000000;stroke-width:0.8;" x="587.52" xlink:href="#m83e943914c" y="234.191424"/>
      </g>
     </g>
     <g id="text_27">
      <!-- 20 -->
      <g transform="translate(567.795 237.990642)scale(0.1 -0.1)">
       <use xlink:href="#DejaVuSans-32"/>
       <use x="63.623047" xlink:href="#DejaVuSans-30"/>
      </g>
     </g>
    </g>
    <g id="ytick_21">
     <g id="line2d_27">
      <g>
       <use style="stroke:#000000;stroke-width:0.8;" x="587.52" xlink:href="#m83e943914c" y="214.826758"/>
      </g>
     </g>
     <g id="text_28">
      <!-- 21 -->
      <g transform="translate(567.795 218.625977)scale(0.1 -0.1)">
       <use xlink:href="#DejaVuSans-32"/>
       <use x="63.623047" xlink:href="#DejaVuSans-31"/>
      </g>
     </g>
    </g>
    <g id="ytick_22">
     <g id="line2d_28">
      <g>
       <use style="stroke:#000000;stroke-width:0.8;" x="587.52" xlink:href="#m83e943914c" y="195.462093"/>
      </g>
     </g>
     <g id="text_29">
      <!-- 22 -->
      <g transform="translate(567.795 199.261311)scale(0.1 -0.1)">
       <use xlink:href="#DejaVuSans-32"/>
       <use x="63.623047" xlink:href="#DejaVuSans-32"/>
      </g>
     </g>
    </g>
    <g id="ytick_23">
     <g id="line2d_29">
      <g>
       <use style="stroke:#000000;stroke-width:0.8;" x="587.52" xlink:href="#m83e943914c" y="176.097427"/>
      </g>
     </g>
     <g id="text_30">
      <!-- 23 -->
      <g transform="translate(567.795 179.896646)scale(0.1 -0.1)">
       <use xlink:href="#DejaVuSans-32"/>
       <use x="63.623047" xlink:href="#DejaVuSans-33"/>
      </g>
     </g>
    </g>
    <g id="ytick_24">
     <g id="line2d_30">
      <g>
       <use style="stroke:#000000;stroke-width:0.8;" x="587.52" xlink:href="#m83e943914c" y="156.732762"/>
      </g>
     </g>
     <g id="text_31">
      <!-- 24 -->
      <g transform="translate(567.795 160.53198)scale(0.1 -0.1)">
       <use xlink:href="#DejaVuSans-32"/>
       <use x="63.623047" xlink:href="#DejaVuSans-34"/>
      </g>
     </g>
    </g>
    <g id="ytick_25">
     <g id="line2d_31">
      <g>
       <use style="stroke:#000000;stroke-width:0.8;" x="587.52" xlink:href="#m83e943914c" y="137.368096"/>
      </g>
     </g>
     <g id="text_32">
      <!-- 25 -->
      <g transform="translate(567.795 141.167315)scale(0.1 -0.1)">
       <use xlink:href="#DejaVuSans-32"/>
       <use x="63.623047" xlink:href="#DejaVuSans-35"/>
      </g>
     </g>
    </g>
    <g id="ytick_26">
     <g id="line2d_32">
      <g>
       <use style="stroke:#000000;stroke-width:0.8;" x="587.52" xlink:href="#m83e943914c" y="118.003431"/>
      </g>
     </g>
     <g id="text_33">
      <!-- 26 -->
      <g transform="translate(567.795 121.802649)scale(0.1 -0.1)">
       <use xlink:href="#DejaVuSans-32"/>
       <use x="63.623047" xlink:href="#DejaVuSans-36"/>
      </g>
     </g>
    </g>
    <g id="ytick_27">
     <g id="line2d_33">
      <g>
       <use style="stroke:#000000;stroke-width:0.8;" x="587.52" xlink:href="#m83e943914c" y="98.638765"/>
      </g>
     </g>
     <g id="text_34">
      <!-- kiwipete -->
      <defs>
       <path d="M 9.078125 75.984375 
L 18.109375 75.984375 
L 18.109375 31.109375 
L 44.921875 54.6875 
L 56.390625 54.6875 
L 27.390625 29.109375 
L 57.625 0 
L 45.90625 0 
L 18.109375 26.703125 
L 18.109375 0 
L 9.078125 0 
z
" id="DejaVuSans-6b"/>
       <path d="M 4.203125 54.6875 
L 13.1875 54.6875 
L 24.421875 12.015625 
L 35.59375 54.6875 
L 46.1875 54.6875 
L 57.421875 12.015625 
L 68.609375 54.6875 
L 77.59375 54.6875 
L 63.28125 0 
L 52.6875 0 
L 40.921875 44.828125 
L 29.109375 0 
L 18.5 0 
z
" id="DejaVuSans-77"/>
       <path d="M 18.109375 8.203125 
L 18.109375 -20.796875 
L 9.078125 -20.796875 
L 9.078125 54.6875 
L 18.109375 54.6875 
L 18.109375 46.390625 
Q 20.953125 51.265625 25.265625 53.625 
Q 29.59375 56 35.59375 56 
Q 45.5625 56 51.78125 48.09375 
Q 58.015625 40.1875 58.015625 27.296875 
Q 58.015625 14.40625 51.78125 6.484375 
Q 45.5625 -1.421875 35.59375 -1.421875 
Q 29.59375 -1.421875 25.265625 0.953125 
Q 20.953125 3.328125 18.109375 8.203125 
z
M 48.6875 27.296875 
Q 48.6875 37.203125 44.609375 42.84375 
Q 40.53125 48.484375 33.40625 48.484375 
Q 26.265625 48.484375 22.1875 42.84375 
Q 18.109375 37.203125 18.109375 27.296875 
Q 18.109375 17.390625 22.1875 11.75 
Q 26.265625 6.109375 33.40625 6.109375 
Q 40.53125 6.109375 44.609375 11.75 
Q 48.6875 17.390625 48.6875 27.296875 
z
" id="DejaVuSans-70"/>
       <path d="M 18.3125 70.21875 
L 18.3125 54.6875 
L 36.8125 54.6875 
L 36.8125 47.703125 
L 18.3125 47.703125 
L 18.3125 18.015625 
Q 18.3125 11.328125 20.140625 9.421875 
Q 21.96875 7.515625 27.59375 7.515625 
L 36.8125 7.515625 
L 36.8125 0 
L 27.59375 0 
Q 17.1875 0 13.234375 3.875 
Q 9.28125 7.765625 9.28125 18.015625 
L 9.28125 47.703125 
L 2.6875 47.703125 
L 2.6875 54.6875 
L 9.28125 54.6875 
L 9.28125 70.21875 
z
" id="DejaVuSans-74"/>
      </defs>
      <g transform="translate(538.42 102.437984)scale(0.1 -0.1)">
       <use xlink:href="#DejaVuSans-6b"/>
       <use x="57.910156" xlink:href="#DejaVuSans-69"/>
       <use x="85.693359" xlink:href="#DejaVuSans-77"/>
       <use x="167.480469" xlink:href="#DejaVuSans-69"/>
       <use x="195.263672" xlink:href="#DejaVuSans-70"/>
       <use x="258.740234" xlink:href="#DejaVuSans-65"/>
       <use x="320.263672" xlink:href="#DejaVuSans-74"/>
       <use x="359.472656" xlink:href="#DejaVuSans-65"/>
      </g>
     </g>
    </g>
    <g id="text_35">
     <!-- Test -->
     <g transform="translate(532.340312 363.482031)rotate(-90)scale(0.1 -0.1)">
      <use xlink:href="#DejaVuSans-54"/>
      <use x="60.818359" xlink:href="#DejaVuSans-65"/>
      <use x="122.341797" xlink:href="#DejaVuSans-73"/>
      <use x="174.441406" xlink:href="#DejaVuSans-74"/>
     </g>
    </g>
   </g>
   <g id="LineCollection_1">
    <path clip-path="url(#p6e0e5c6e34)" d="M 619.508318 606.961235 
L 634.5661 606.961235 
" style="fill:none;stroke:#000000;stroke-width:1.5;"/>
    <path clip-path="url(#p6e0e5c6e34)" d="M 621.838805 587.596569 
L 633.79842 587.596569 
" style="fill:none;stroke:#000000;stroke-width:1.5;"/>
    <path clip-path="url(#p6e0e5c6e34)" d="M 680.555941 568.231904 
L 713.689036 568.231904 
" style="fill:none;stroke:#000000;stroke-width:1.5;"/>
    <path clip-path="url(#p6e0e5c6e34)" d="M 690.415613 548.867238 
L 706.375256 548.867238 
" style="fill:none;stroke:#000000;stroke-width:1.5;"/>
    <path clip-path="url(#p6e0e5c6e34)" d="M 637.900478 529.502573 
L 649.595143 529.502573 
" style="fill:none;stroke:#000000;stroke-width:1.5;"/>
    <path clip-path="url(#p6e0e5c6e34)" d="M 639.116343 510.137907 
L 646.743432 510.137907 
" style="fill:none;stroke:#000000;stroke-width:1.5;"/>
    <path clip-path="url(#p6e0e5c6e34)" d="M 648.111705 490.773242 
L 659.013245 490.773242 
" style="fill:none;stroke:#000000;stroke-width:1.5;"/>
    <path clip-path="url(#p6e0e5c6e34)" d="M 646.959324 471.408576 
L 660.201839 471.408576 
" style="fill:none;stroke:#000000;stroke-width:1.5;"/>
    <path clip-path="url(#p6e0e5c6e34)" d="M 619.02561 452.043911 
L 627.899362 452.043911 
" style="fill:none;stroke:#000000;stroke-width:1.5;"/>
    <path clip-path="url(#p6e0e5c6e34)" d="M 619.450294 432.679245 
L 628.274739 432.679245 
" style="fill:none;stroke:#000000;stroke-width:1.5;"/>
    <path clip-path="url(#p6e0e5c6e34)" d="M 639.091849 413.31458 
L 647.499467 413.31458 
" style="fill:none;stroke:#000000;stroke-width:1.5;"/>
    <path clip-path="url(#p6e0e5c6e34)" d="M 639.65462 393.949914 
L 647.78158 393.949914 
" style="fill:none;stroke:#000000;stroke-width:1.5;"/>
    <path clip-path="url(#p6e0e5c6e34)" d="M 743.909451 374.585249 
L 776.006983 374.585249 
" style="fill:none;stroke:#000000;stroke-width:1.5;"/>
    <path clip-path="url(#p6e0e5c6e34)" d="M 732.499148 355.220583 
L 785.005714 355.220583 
" style="fill:none;stroke:#000000;stroke-width:1.5;"/>
    <path clip-path="url(#p6e0e5c6e34)" d="M 610.128063 335.855918 
L 619.338021 335.855918 
" style="fill:none;stroke:#000000;stroke-width:1.5;"/>
    <path clip-path="url(#p6e0e5c6e34)" d="M 607.422105 316.491252 
L 625.860468 316.491252 
" style="fill:none;stroke:#000000;stroke-width:1.5;"/>
    <path clip-path="url(#p6e0e5c6e34)" d="M 603.805194 297.126587 
L 612.583427 297.126587 
" style="fill:none;stroke:#000000;stroke-width:1.5;"/>
    <path clip-path="url(#p6e0e5c6e34)" d="M 602.984551 277.761921 
L 609.166572 277.761921 
" style="fill:none;stroke:#000000;stroke-width:1.5;"/>
    <path clip-path="url(#p6e0e5c6e34)" d="M 596.109221 258.397256 
L 599.153415 258.397256 
" style="fill:none;stroke:#000000;stroke-width:1.5;"/>
    <path clip-path="url(#p6e0e5c6e34)" d="M 596.180809 239.03259 
L 598.910656 239.03259 
" style="fill:none;stroke:#000000;stroke-width:1.5;"/>
    <path clip-path="url(#p6e0e5c6e34)" d="M 587.71038 219.667925 
L 587.747941 219.667925 
" style="fill:none;stroke:#000000;stroke-width:1.5;"/>
    <path clip-path="url(#p6e0e5c6e34)" d="M 587.639515 200.303259 
L 587.812352 200.303259 
" style="fill:none;stroke:#000000;stroke-width:1.5;"/>
    <path clip-path="url(#p6e0e5c6e34)" d="M 616.45647 180.938593 
L 620.877996 180.938593 
" style="fill:none;stroke:#000000;stroke-width:1.5;"/>
    <path clip-path="url(#p6e0e5c6e34)" d="M 613.211141 161.573928 
L 623.279813 161.573928 
" style="fill:none;stroke:#000000;stroke-width:1.5;"/>
    <path clip-path="url(#p6e0e5c6e34)" d="M 590.260455 142.209262 
L 591.870298 142.209262 
" style="fill:none;stroke:#000000;stroke-width:1.5;"/>
    <path clip-path="url(#p6e0e5c6e34)" d="M 590.415876 122.844597 
L 591.48489 122.844597 
" style="fill:none;stroke:#000000;stroke-width:1.5;"/>
    <path clip-path="url(#p6e0e5c6e34)" d="M 706.990766 103.479931 
L 724.091399 103.479931 
" style="fill:none;stroke:#000000;stroke-width:1.5;"/>
   </g>
   <g id="LineCollection_2">
    <path clip-path="url(#p6e0e5c6e34)" d="M 610.410412 602.120069 
L 619.548003 602.120069 
" style="fill:none;stroke:#000000;stroke-width:1.5;"/>
    <path clip-path="url(#p6e0e5c6e34)" d="M 609.495068 582.755403 
L 616.678308 582.755403 
" style="fill:none;stroke:#000000;stroke-width:1.5;"/>
    <path clip-path="url(#p6e0e5c6e34)" d="M 657.90857 563.390738 
L 677.61753 563.390738 
" style="fill:none;stroke:#000000;stroke-width:1.5;"/>
    <path clip-path="url(#p6e0e5c6e34)" d="M 658.024813 544.026072 
L 675.370652 544.026072 
" style="fill:none;stroke:#000000;stroke-width:1.5;"/>
    <path clip-path="url(#p6e0e5c6e34)" d="M 622.82392 524.661407 
L 633.688487 524.661407 
" style="fill:none;stroke:#000000;stroke-width:1.5;"/>
    <path clip-path="url(#p6e0e5c6e34)" d="M 624.367199 505.296741 
L 631.684752 505.296741 
" style="fill:none;stroke:#000000;stroke-width:1.5;"/>
    <path clip-path="url(#p6e0e5c6e34)" d="M 631.263911 485.932075 
L 638.988668 485.932075 
" style="fill:none;stroke:#000000;stroke-width:1.5;"/>
    <path clip-path="url(#p6e0e5c6e34)" d="M 629.158061 466.56741 
L 640.734294 466.56741 
" style="fill:none;stroke:#000000;stroke-width:1.5;"/>
    <path clip-path="url(#p6e0e5c6e34)" d="M 606.846341 447.202744 
L 613.35234 447.202744 
" style="fill:none;stroke:#000000;stroke-width:1.5;"/>
    <path clip-path="url(#p6e0e5c6e34)" d="M 608.113075 427.838079 
L 613.061871 427.838079 
" style="fill:none;stroke:#000000;stroke-width:1.5;"/>
    <path clip-path="url(#p6e0e5c6e34)" d="M 621.11761 408.473413 
L 627.539445 408.473413 
" style="fill:none;stroke:#000000;stroke-width:1.5;"/>
    <path clip-path="url(#p6e0e5c6e34)" d="M 620.405185 389.108748 
L 628.95058 389.108748 
" style="fill:none;stroke:#000000;stroke-width:1.5;"/>
    <path clip-path="url(#p6e0e5c6e34)" d="M 699.860648 369.744082 
L 709.626532 369.744082 
" style="fill:none;stroke:#000000;stroke-width:1.5;"/>
    <path clip-path="url(#p6e0e5c6e34)" d="M 684.149726 350.379417 
L 727.021625 350.379417 
" style="fill:none;stroke:#000000;stroke-width:1.5;"/>
    <path clip-path="url(#p6e0e5c6e34)" d="M 604.297051 331.014751 
L 609.197675 331.014751 
" style="fill:none;stroke:#000000;stroke-width:1.5;"/>
    <path clip-path="url(#p6e0e5c6e34)" d="M 604.635178 311.650086 
L 606.829522 311.650086 
" style="fill:none;stroke:#000000;stroke-width:1.5;"/>
    <path clip-path="url(#p6e0e5c6e34)" d="M 600.364339 292.28542 
L 604.00572 292.28542 
" style="fill:none;stroke:#000000;stroke-width:1.5;"/>
    <path clip-path="url(#p6e0e5c6e34)" d="M 597.716695 272.920755 
L 607.177725 272.920755 
" style="fill:none;stroke:#000000;stroke-width:1.5;"/>
    <path clip-path="url(#p6e0e5c6e34)" d="M 593.498354 253.556089 
L 595.452017 253.556089 
" style="fill:none;stroke:#000000;stroke-width:1.5;"/>
    <path clip-path="url(#p6e0e5c6e34)" d="M 594.430085 234.191424 
L 595.520085 234.191424 
" style="fill:none;stroke:#000000;stroke-width:1.5;"/>
    <path clip-path="url(#p6e0e5c6e34)" d="M 587.662829 214.826758 
L 587.695129 214.826758 
" style="fill:none;stroke:#000000;stroke-width:1.5;"/>
    <path clip-path="url(#p6e0e5c6e34)" d="M 587.668854 195.462093 
L 587.693662 195.462093 
" style="fill:none;stroke:#000000;stroke-width:1.5;"/>
    <path clip-path="url(#p6e0e5c6e34)" d="M 606.979572 176.097427 
L 612.407016 176.097427 
" style="fill:none;stroke:#000000;stroke-width:1.5;"/>
    <path clip-path="url(#p6e0e5c6e34)" d="M 607.511947 156.732762 
L 611.100418 156.732762 
" style="fill:none;stroke:#000000;stroke-width:1.5;"/>
    <path clip-path="url(#p6e0e5c6e34)" d="M 589.580092 137.368096 
L 590.256076 137.368096 
" style="fill:none;stroke:#000000;stroke-width:1.5;"/>
    <path clip-path="url(#p6e0e5c6e34)" d="M 589.87668 118.003431 
L 590.334857 118.003431 
" style="fill:none;stroke:#000000;stroke-width:1.5;"/>
    <path clip-path="url(#p6e0e5c6e34)" d="M 664.195238 98.638765 
L 670.994704 98.638765 
" style="fill:none;stroke:#000000;stroke-width:1.5;"/>
   </g>
   <g id="patch_57">
    <path d="M 587.52 635.04 
L 587.52 70.56 
" style="fill:none;stroke:#000000;stroke-linecap:square;stroke-linejoin:miter;stroke-width:0.8;"/>
   </g>
   <g id="patch_58">
    <path d="M 794.88 635.04 
L 794.88 70.56 
" style="fill:none;stroke:#000000;stroke-linecap:square;stroke-linejoin:miter;stroke-width:0.8;"/>
   </g>
   <g id="patch_59">
    <path d="M 587.52 635.04 
L 794.88 635.04 
" style="fill:none;stroke:#000000;stroke-linecap:square;stroke-linejoin:miter;stroke-width:0.8;"/>
   </g>
   <g id="patch_60">
    <path d="M 587.52 70.56 
L 794.88 70.56 
" style="fill:none;stroke:#000000;stroke-linecap:square;stroke-linejoin:miter;stroke-width:0.8;"/>
   </g>
   <g id="text_36">
    <!-- 9.6750 -->
    <defs>
     <path d="M 10.6875 12.40625 
L 21 12.40625 
L 21 0 
L 10.6875 0 
z
" id="DejaVuSans-2e"/>
    </defs>
    <g transform="translate(627.037209 605.713422)scale(0.06 -0.06)">
     <use xlink:href="#DejaVuSans-39"/>
     <use x="63.623047" xlink:href="#DejaVuSans-2e"/>
     <use x="95.410156" xlink:href="#DejaVuSans-36"/>
     <use x="159.033203" xlink:href="#DejaVuSans-37"/>
     <use x="222.65625" xlink:href="#DejaVuSans-35"/>
     <use x="286.279297" xlink:href="#DejaVuSans-30"/>
    </g>
   </g>
   <g id="text_37">
    <!-- 9.8664 -->
    <g transform="translate(627.818612 586.348757)scale(0.06 -0.06)">
     <use xlink:href="#DejaVuSans-39"/>
     <use x="63.623047" xlink:href="#DejaVuSans-2e"/>
     <use x="95.410156" xlink:href="#DejaVuSans-38"/>
     <use x="159.033203" xlink:href="#DejaVuSans-36"/>
     <use x="222.65625" xlink:href="#DejaVuSans-36"/>
     <use x="286.279297" xlink:href="#DejaVuSans-34"/>
    </g>
   </g>
   <g id="text_38">
    <!-- 26.8341 -->
    <g transform="translate(697.122489 566.984091)scale(0.06 -0.06)">
     <use xlink:href="#DejaVuSans-32"/>
     <use x="63.623047" xlink:href="#DejaVuSans-36"/>
     <use x="127.246094" xlink:href="#DejaVuSans-2e"/>
     <use x="159.033203" xlink:href="#DejaVuSans-38"/>
     <use x="222.65625" xlink:href="#DejaVuSans-33"/>
     <use x="286.279297" xlink:href="#DejaVuSans-34"/>
     <use x="349.902344" xlink:href="#DejaVuSans-31"/>
    </g>
   </g>
   <g id="text_39">
    <!-- 27.1458 -->
    <g transform="translate(698.395435 547.619426)scale(0.06 -0.06)">
     <use xlink:href="#DejaVuSans-32"/>
     <use x="63.623047" xlink:href="#DejaVuSans-37"/>
     <use x="127.246094" xlink:href="#DejaVuSans-2e"/>
     <use x="159.033203" xlink:href="#DejaVuSans-31"/>
     <use x="222.65625" xlink:href="#DejaVuSans-34"/>
     <use x="286.279297" xlink:href="#DejaVuSans-35"/>
     <use x="349.902344" xlink:href="#DejaVuSans-38"/>
    </g>
   </g>
   <g id="text_40">
    <!-- 13.7663 -->
    <g transform="translate(643.74781 528.25476)scale(0.06 -0.06)">
     <use xlink:href="#DejaVuSans-31"/>
     <use x="63.623047" xlink:href="#DejaVuSans-33"/>
     <use x="127.246094" xlink:href="#DejaVuSans-2e"/>
     <use x="159.033203" xlink:href="#DejaVuSans-37"/>
     <use x="222.65625" xlink:href="#DejaVuSans-36"/>
     <use x="286.279297" xlink:href="#DejaVuSans-36"/>
     <use x="349.902344" xlink:href="#DejaVuSans-33"/>
    </g>
   </g>
   <g id="text_41">
    <!-- 13.5661 -->
    <g transform="translate(642.929888 508.890095)scale(0.06 -0.06)">
     <use xlink:href="#DejaVuSans-31"/>
     <use x="63.623047" xlink:href="#DejaVuSans-33"/>
     <use x="127.246094" xlink:href="#DejaVuSans-2e"/>
     <use x="159.033203" xlink:href="#DejaVuSans-35"/>
     <use x="222.65625" xlink:href="#DejaVuSans-36"/>
     <use x="286.279297" xlink:href="#DejaVuSans-36"/>
     <use x="349.902344" xlink:href="#DejaVuSans-31"/>
    </g>
   </g>
   <g id="text_42">
    <!-- 16.1693 -->
    <g transform="translate(653.562475 489.525429)scale(0.06 -0.06)">
     <use xlink:href="#DejaVuSans-31"/>
     <use x="63.623047" xlink:href="#DejaVuSans-36"/>
     <use x="127.246094" xlink:href="#DejaVuSans-2e"/>
     <use x="159.033203" xlink:href="#DejaVuSans-31"/>
     <use x="222.65625" xlink:href="#DejaVuSans-36"/>
     <use x="286.279297" xlink:href="#DejaVuSans-39"/>
     <use x="349.902344" xlink:href="#DejaVuSans-33"/>
    </g>
   </g>
   <g id="text_43">
    <!-- 16.1737 -->
    <g transform="translate(653.580582 470.160764)scale(0.06 -0.06)">
     <use xlink:href="#DejaVuSans-31"/>
     <use x="63.623047" xlink:href="#DejaVuSans-36"/>
     <use x="127.246094" xlink:href="#DejaVuSans-2e"/>
     <use x="159.033203" xlink:href="#DejaVuSans-31"/>
     <use x="222.65625" xlink:href="#DejaVuSans-37"/>
     <use x="286.279297" xlink:href="#DejaVuSans-33"/>
     <use x="349.902344" xlink:href="#DejaVuSans-37"/>
    </g>
   </g>
   <g id="text_44">
    <!-- 8.7998 -->
    <g transform="translate(623.462486 450.796098)scale(0.06 -0.06)">
     <use xlink:href="#DejaVuSans-38"/>
     <use x="63.623047" xlink:href="#DejaVuSans-2e"/>
     <use x="95.410156" xlink:href="#DejaVuSans-37"/>
     <use x="159.033203" xlink:href="#DejaVuSans-39"/>
     <use x="222.65625" xlink:href="#DejaVuSans-39"/>
     <use x="286.279297" xlink:href="#DejaVuSans-38"/>
    </g>
   </g>
   <g id="text_45">
    <!-- 8.8978 -->
    <g transform="translate(623.862517 431.431433)scale(0.06 -0.06)">
     <use xlink:href="#DejaVuSans-38"/>
     <use x="63.623047" xlink:href="#DejaVuSans-2e"/>
     <use x="95.410156" xlink:href="#DejaVuSans-38"/>
     <use x="159.033203" xlink:href="#DejaVuSans-39"/>
     <use x="222.65625" xlink:href="#DejaVuSans-37"/>
     <use x="286.279297" xlink:href="#DejaVuSans-38"/>
    </g>
   </g>
   <g id="text_46">
    <!-- 13.6556 -->
    <g transform="translate(643.295658 412.066767)scale(0.06 -0.06)">
     <use xlink:href="#DejaVuSans-31"/>
     <use x="63.623047" xlink:href="#DejaVuSans-33"/>
     <use x="127.246094" xlink:href="#DejaVuSans-2e"/>
     <use x="159.033203" xlink:href="#DejaVuSans-36"/>
     <use x="222.65625" xlink:href="#DejaVuSans-35"/>
     <use x="286.279297" xlink:href="#DejaVuSans-35"/>
     <use x="349.902344" xlink:href="#DejaVuSans-36"/>
    </g>
   </g>
   <g id="text_47">
    <!-- 13.7591 -->
    <g transform="translate(643.7181 392.702102)scale(0.06 -0.06)">
     <use xlink:href="#DejaVuSans-31"/>
     <use x="63.623047" xlink:href="#DejaVuSans-33"/>
     <use x="127.246094" xlink:href="#DejaVuSans-2e"/>
     <use x="159.033203" xlink:href="#DejaVuSans-37"/>
     <use x="222.65625" xlink:href="#DejaVuSans-35"/>
     <use x="286.279297" xlink:href="#DejaVuSans-39"/>
     <use x="349.902344" xlink:href="#DejaVuSans-31"/>
    </g>
   </g>
   <g id="text_48">
    <!-- 42.2183 -->
    <g transform="translate(759.958217 373.337436)scale(0.06 -0.06)">
     <use xlink:href="#DejaVuSans-34"/>
     <use x="63.623047" xlink:href="#DejaVuSans-32"/>
     <use x="127.246094" xlink:href="#DejaVuSans-2e"/>
     <use x="159.033203" xlink:href="#DejaVuSans-32"/>
     <use x="222.65625" xlink:href="#DejaVuSans-31"/>
     <use x="286.279297" xlink:href="#DejaVuSans-38"/>
     <use x="349.902344" xlink:href="#DejaVuSans-33"/>
    </g>
   </g>
   <g id="text_49">
    <!-- 41.9231 -->
    <g transform="translate(758.752431 353.972771)scale(0.06 -0.06)">
     <use xlink:href="#DejaVuSans-34"/>
     <use x="63.623047" xlink:href="#DejaVuSans-31"/>
     <use x="127.246094" xlink:href="#DejaVuSans-2e"/>
     <use x="159.033203" xlink:href="#DejaVuSans-39"/>
     <use x="222.65625" xlink:href="#DejaVuSans-32"/>
     <use x="286.279297" xlink:href="#DejaVuSans-33"/>
     <use x="349.902344" xlink:href="#DejaVuSans-31"/>
    </g>
   </g>
   <g id="text_50">
    <!-- 6.6626 -->
    <g transform="translate(614.733042 334.608105)scale(0.06 -0.06)">
     <use xlink:href="#DejaVuSans-36"/>
     <use x="63.623047" xlink:href="#DejaVuSans-2e"/>
     <use x="95.410156" xlink:href="#DejaVuSans-36"/>
     <use x="159.033203" xlink:href="#DejaVuSans-36"/>
     <use x="222.65625" xlink:href="#DejaVuSans-32"/>
     <use x="286.279297" xlink:href="#DejaVuSans-36"/>
    </g>
   </g>
   <g id="text_51">
    <!-- 7.1298 -->
    <g transform="translate(616.641287 315.24344)scale(0.06 -0.06)">
     <use xlink:href="#DejaVuSans-37"/>
     <use x="63.623047" xlink:href="#DejaVuSans-2e"/>
     <use x="95.410156" xlink:href="#DejaVuSans-31"/>
     <use x="159.033203" xlink:href="#DejaVuSans-32"/>
     <use x="222.65625" xlink:href="#DejaVuSans-39"/>
     <use x="286.279297" xlink:href="#DejaVuSans-38"/>
    </g>
   </g>
   <g id="text_52">
    <!-- 5.0617 -->
    <g transform="translate(608.194311 295.878774)scale(0.06 -0.06)">
     <use xlink:href="#DejaVuSans-35"/>
     <use x="63.623047" xlink:href="#DejaVuSans-2e"/>
     <use x="95.410156" xlink:href="#DejaVuSans-30"/>
     <use x="159.033203" xlink:href="#DejaVuSans-36"/>
     <use x="222.65625" xlink:href="#DejaVuSans-31"/>
     <use x="286.279297" xlink:href="#DejaVuSans-37"/>
    </g>
   </g>
   <g id="text_53">
    <!-- 4.5430 -->
    <g transform="translate(606.075562 276.514109)scale(0.06 -0.06)">
     <use xlink:href="#DejaVuSans-34"/>
     <use x="63.623047" xlink:href="#DejaVuSans-2e"/>
     <use x="95.410156" xlink:href="#DejaVuSans-35"/>
     <use x="159.033203" xlink:href="#DejaVuSans-34"/>
     <use x="222.65625" xlink:href="#DejaVuSans-33"/>
     <use x="286.279297" xlink:href="#DejaVuSans-30"/>
    </g>
   </g>
   <g id="text_54">
    <!-- 2.4756 -->
    <g transform="translate(597.631318 257.149443)scale(0.06 -0.06)">
     <use xlink:href="#DejaVuSans-32"/>
     <use x="63.623047" xlink:href="#DejaVuSans-2e"/>
     <use x="95.410156" xlink:href="#DejaVuSans-34"/>
     <use x="159.033203" xlink:href="#DejaVuSans-37"/>
     <use x="222.65625" xlink:href="#DejaVuSans-35"/>
     <use x="286.279297" xlink:href="#DejaVuSans-36"/>
    </g>
   </g>
   <g id="text_55">
    <!-- 2.4546 -->
    <g transform="translate(597.545733 237.784778)scale(0.06 -0.06)">
     <use xlink:href="#DejaVuSans-32"/>
     <use x="63.623047" xlink:href="#DejaVuSans-2e"/>
     <use x="95.410156" xlink:href="#DejaVuSans-34"/>
     <use x="159.033203" xlink:href="#DejaVuSans-35"/>
     <use x="222.65625" xlink:href="#DejaVuSans-34"/>
     <use x="286.279297" xlink:href="#DejaVuSans-36"/>
    </g>
   </g>
   <g id="text_56">
    <!-- 0.0512 -->
    <g transform="translate(587.72916 218.420112)scale(0.06 -0.06)">
     <use xlink:href="#DejaVuSans-30"/>
     <use x="63.623047" xlink:href="#DejaVuSans-2e"/>
     <use x="95.410156" xlink:href="#DejaVuSans-30"/>
     <use x="159.033203" xlink:href="#DejaVuSans-35"/>
     <use x="222.65625" xlink:href="#DejaVuSans-31"/>
     <use x="286.279297" xlink:href="#DejaVuSans-32"/>
    </g>
   </g>
   <g id="text_57">
    <!-- 0.0504 -->
    <g transform="translate(587.725934 199.055447)scale(0.06 -0.06)">
     <use xlink:href="#DejaVuSans-30"/>
     <use x="63.623047" xlink:href="#DejaVuSans-2e"/>
     <use x="95.410156" xlink:href="#DejaVuSans-30"/>
     <use x="159.033203" xlink:href="#DejaVuSans-35"/>
     <use x="222.65625" xlink:href="#DejaVuSans-30"/>
     <use x="286.279297" xlink:href="#DejaVuSans-34"/>
    </g>
   </g>
   <g id="text_58">
    <!-- 7.6258 -->
    <g transform="translate(618.667233 179.690781)scale(0.06 -0.06)">
     <use xlink:href="#DejaVuSans-37"/>
     <use x="63.623047" xlink:href="#DejaVuSans-2e"/>
     <use x="95.410156" xlink:href="#DejaVuSans-36"/>
     <use x="159.033203" xlink:href="#DejaVuSans-32"/>
     <use x="222.65625" xlink:href="#DejaVuSans-35"/>
     <use x="286.279297" xlink:href="#DejaVuSans-38"/>
    </g>
   </g>
   <g id="text_59">
    <!-- 7.5226 -->
    <g transform="translate(618.245477 160.326115)scale(0.06 -0.06)">
     <use xlink:href="#DejaVuSans-37"/>
     <use x="63.623047" xlink:href="#DejaVuSans-2e"/>
     <use x="95.410156" xlink:href="#DejaVuSans-35"/>
     <use x="159.033203" xlink:href="#DejaVuSans-32"/>
     <use x="222.65625" xlink:href="#DejaVuSans-32"/>
     <use x="286.279297" xlink:href="#DejaVuSans-36"/>
    </g>
   </g>
   <g id="text_60">
    <!-- 0.8680 -->
    <g transform="translate(591.065376 140.96145)scale(0.06 -0.06)">
     <use xlink:href="#DejaVuSans-30"/>
     <use x="63.623047" xlink:href="#DejaVuSans-2e"/>
     <use x="95.410156" xlink:href="#DejaVuSans-38"/>
     <use x="159.033203" xlink:href="#DejaVuSans-36"/>
     <use x="222.65625" xlink:href="#DejaVuSans-38"/>
     <use x="286.279297" xlink:href="#DejaVuSans-30"/>
    </g>
   </g>
   <g id="text_61">
    <!-- 0.8399 -->
    <g transform="translate(590.950383 121.596784)scale(0.06 -0.06)">
     <use xlink:href="#DejaVuSans-30"/>
     <use x="63.623047" xlink:href="#DejaVuSans-2e"/>
     <use x="95.410156" xlink:href="#DejaVuSans-38"/>
     <use x="159.033203" xlink:href="#DejaVuSans-33"/>
     <use x="222.65625" xlink:href="#DejaVuSans-39"/>
     <use x="286.279297" xlink:href="#DejaVuSans-39"/>
    </g>
   </g>
   <g id="text_62">
    <!-- 31.3436 -->
    <g transform="translate(715.541082 102.232119)scale(0.06 -0.06)">
     <use xlink:href="#DejaVuSans-33"/>
     <use x="63.623047" xlink:href="#DejaVuSans-31"/>
     <use x="127.246094" xlink:href="#DejaVuSans-2e"/>
     <use x="159.033203" xlink:href="#DejaVuSans-33"/>
     <use x="222.65625" xlink:href="#DejaVuSans-34"/>
     <use x="286.279297" xlink:href="#DejaVuSans-33"/>
     <use x="349.902344" xlink:href="#DejaVuSans-36"/>
    </g>
   </g>
   <g id="text_63">
    <!-- 6.7229 -->
    <g transform="translate(614.979207 600.872256)scale(0.06 -0.06)">
     <use xlink:href="#DejaVuSans-36"/>
     <use x="63.623047" xlink:href="#DejaVuSans-2e"/>
     <use x="95.410156" xlink:href="#DejaVuSans-37"/>
     <use x="159.033203" xlink:href="#DejaVuSans-32"/>
     <use x="222.65625" xlink:href="#DejaVuSans-32"/>
     <use x="286.279297" xlink:href="#DejaVuSans-39"/>
    </g>
   </g>
   <g id="text_64">
    <!-- 6.2595 -->
    <g transform="translate(613.086688 581.507591)scale(0.06 -0.06)">
     <use xlink:href="#DejaVuSans-36"/>
     <use x="63.623047" xlink:href="#DejaVuSans-2e"/>
     <use x="95.410156" xlink:href="#DejaVuSans-32"/>
     <use x="159.033203" xlink:href="#DejaVuSans-35"/>
     <use x="222.65625" xlink:href="#DejaVuSans-39"/>
     <use x="286.279297" xlink:href="#DejaVuSans-35"/>
    </g>
   </g>
   <g id="text_65">
    <!-- 19.6460 -->
    <g transform="translate(667.76305 562.142925)scale(0.06 -0.06)">
     <use xlink:href="#DejaVuSans-31"/>
     <use x="63.623047" xlink:href="#DejaVuSans-39"/>
     <use x="127.246094" xlink:href="#DejaVuSans-2e"/>
     <use x="159.033203" xlink:href="#DejaVuSans-36"/>
     <use x="222.65625" xlink:href="#DejaVuSans-34"/>
     <use x="286.279297" xlink:href="#DejaVuSans-36"/>
     <use x="349.902344" xlink:href="#DejaVuSans-30"/>
    </g>
   </g>
   <g id="text_66">
    <!-- 19.3852 -->
    <g transform="translate(666.697733 542.77826)scale(0.06 -0.06)">
     <use xlink:href="#DejaVuSans-31"/>
     <use x="63.623047" xlink:href="#DejaVuSans-39"/>
     <use x="127.246094" xlink:href="#DejaVuSans-2e"/>
     <use x="159.033203" xlink:href="#DejaVuSans-33"/>
     <use x="222.65625" xlink:href="#DejaVuSans-38"/>
     <use x="286.279297" xlink:href="#DejaVuSans-35"/>
     <use x="349.902344" xlink:href="#DejaVuSans-32"/>
    </g>
   </g>
   <g id="text_67">
    <!-- 9.9735 -->
    <g transform="translate(628.256203 523.413594)scale(0.06 -0.06)">
     <use xlink:href="#DejaVuSans-39"/>
     <use x="63.623047" xlink:href="#DejaVuSans-2e"/>
     <use x="95.410156" xlink:href="#DejaVuSans-39"/>
     <use x="159.033203" xlink:href="#DejaVuSans-37"/>
     <use x="222.65625" xlink:href="#DejaVuSans-33"/>
     <use x="286.279297" xlink:href="#DejaVuSans-35"/>
    </g>
   </g>
   <g id="text_68">
    <!-- 9.9171 -->
    <g transform="translate(628.025976 504.048928)scale(0.06 -0.06)">
     <use xlink:href="#DejaVuSans-39"/>
     <use x="63.623047" xlink:href="#DejaVuSans-2e"/>
     <use x="95.410156" xlink:href="#DejaVuSans-39"/>
     <use x="159.033203" xlink:href="#DejaVuSans-31"/>
     <use x="222.65625" xlink:href="#DejaVuSans-37"/>
     <use x="286.279297" xlink:href="#DejaVuSans-31"/>
    </g>
   </g>
   <g id="text_69">
    <!-- 11.6555 -->
    <g transform="translate(635.12629 484.684263)scale(0.06 -0.06)">
     <use xlink:href="#DejaVuSans-31"/>
     <use x="63.623047" xlink:href="#DejaVuSans-31"/>
     <use x="127.246094" xlink:href="#DejaVuSans-2e"/>
     <use x="159.033203" xlink:href="#DejaVuSans-36"/>
     <use x="222.65625" xlink:href="#DejaVuSans-35"/>
     <use x="286.279297" xlink:href="#DejaVuSans-35"/>
     <use x="349.902344" xlink:href="#DejaVuSans-35"/>
    </g>
   </g>
   <g id="text_70">
    <!-- 11.6114 -->
    <g transform="translate(634.946178 465.319597)scale(0.06 -0.06)">
     <use xlink:href="#DejaVuSans-31"/>
     <use x="63.623047" xlink:href="#DejaVuSans-31"/>
     <use x="127.246094" xlink:href="#DejaVuSans-2e"/>
     <use x="159.033203" xlink:href="#DejaVuSans-36"/>
     <use x="222.65625" xlink:href="#DejaVuSans-31"/>
     <use x="286.279297" xlink:href="#DejaVuSans-31"/>
     <use x="349.902344" xlink:href="#DejaVuSans-34"/>
    </g>
   </g>
   <g id="text_71">
    <!-- 5.5281 -->
    <g transform="translate(610.099341 445.954932)scale(0.06 -0.06)">
     <use xlink:href="#DejaVuSans-35"/>
     <use x="63.623047" xlink:href="#DejaVuSans-2e"/>
     <use x="95.410156" xlink:href="#DejaVuSans-35"/>
     <use x="159.033203" xlink:href="#DejaVuSans-32"/>
     <use x="222.65625" xlink:href="#DejaVuSans-38"/>
     <use x="286.279297" xlink:href="#DejaVuSans-31"/>
    </g>
   </g>
   <g id="text_72">
    <!-- 5.6476 -->
    <g transform="translate(610.587473 426.590266)scale(0.06 -0.06)">
     <use xlink:href="#DejaVuSans-35"/>
     <use x="63.623047" xlink:href="#DejaVuSans-2e"/>
     <use x="95.410156" xlink:href="#DejaVuSans-36"/>
     <use x="159.033203" xlink:href="#DejaVuSans-34"/>
     <use x="222.65625" xlink:href="#DejaVuSans-37"/>
     <use x="286.279297" xlink:href="#DejaVuSans-36"/>
    </g>
   </g>
   <g id="text_73">
    <!-- 9.0119 -->
    <g transform="translate(624.328527 407.225601)scale(0.06 -0.06)">
     <use xlink:href="#DejaVuSans-39"/>
     <use x="63.623047" xlink:href="#DejaVuSans-2e"/>
     <use x="95.410156" xlink:href="#DejaVuSans-30"/>
     <use x="159.033203" xlink:href="#DejaVuSans-31"/>
     <use x="222.65625" xlink:href="#DejaVuSans-31"/>
     <use x="286.279297" xlink:href="#DejaVuSans-39"/>
    </g>
   </g>
   <g id="text_74">
    <!-- 9.0974 -->
    <g transform="translate(624.677882 387.860935)scale(0.06 -0.06)">
     <use xlink:href="#DejaVuSans-39"/>
     <use x="63.623047" xlink:href="#DejaVuSans-2e"/>
     <use x="95.410156" xlink:href="#DejaVuSans-30"/>
     <use x="159.033203" xlink:href="#DejaVuSans-39"/>
     <use x="222.65625" xlink:href="#DejaVuSans-37"/>
     <use x="286.279297" xlink:href="#DejaVuSans-34"/>
    </g>
   </g>
   <g id="text_75">
    <!-- 28.7000 -->
    <g transform="translate(704.74359 368.49627)scale(0.06 -0.06)">
     <use xlink:href="#DejaVuSans-32"/>
     <use x="63.623047" xlink:href="#DejaVuSans-38"/>
     <use x="127.246094" xlink:href="#DejaVuSans-2e"/>
     <use x="159.033203" xlink:href="#DejaVuSans-37"/>
     <use x="222.65625" xlink:href="#DejaVuSans-30"/>
     <use x="286.279297" xlink:href="#DejaVuSans-30"/>
     <use x="349.902344" xlink:href="#DejaVuSans-30"/>
    </g>
   </g>
   <g id="text_76">
    <!-- 28.9062 -->
    <g transform="translate(705.585676 349.131604)scale(0.06 -0.06)">
     <use xlink:href="#DejaVuSans-32"/>
     <use x="63.623047" xlink:href="#DejaVuSans-38"/>
     <use x="127.246094" xlink:href="#DejaVuSans-2e"/>
     <use x="159.033203" xlink:href="#DejaVuSans-39"/>
     <use x="222.65625" xlink:href="#DejaVuSans-30"/>
     <use x="286.279297" xlink:href="#DejaVuSans-36"/>
     <use x="349.902344" xlink:href="#DejaVuSans-32"/>
    </g>
   </g>
   <g id="text_77">
    <!-- 4.7075 -->
    <g transform="translate(606.747363 329.766939)scale(0.06 -0.06)">
     <use xlink:href="#DejaVuSans-34"/>
     <use x="63.623047" xlink:href="#DejaVuSans-2e"/>
     <use x="95.410156" xlink:href="#DejaVuSans-37"/>
     <use x="159.033203" xlink:href="#DejaVuSans-30"/>
     <use x="222.65625" xlink:href="#DejaVuSans-37"/>
     <use x="286.279297" xlink:href="#DejaVuSans-35"/>
    </g>
   </g>
   <g id="text_78">
    <!-- 4.4590 -->
    <g transform="translate(605.73235 310.402273)scale(0.06 -0.06)">
     <use xlink:href="#DejaVuSans-34"/>
     <use x="63.623047" xlink:href="#DejaVuSans-2e"/>
     <use x="95.410156" xlink:href="#DejaVuSans-34"/>
     <use x="159.033203" xlink:href="#DejaVuSans-35"/>
     <use x="222.65625" xlink:href="#DejaVuSans-39"/>
     <use x="286.279297" xlink:href="#DejaVuSans-30"/>
    </g>
   </g>
   <g id="text_79">
    <!-- 3.5905 -->
    <g transform="translate(602.185029 291.037608)scale(0.06 -0.06)">
     <use xlink:href="#DejaVuSans-33"/>
     <use x="63.623047" xlink:href="#DejaVuSans-2e"/>
     <use x="95.410156" xlink:href="#DejaVuSans-35"/>
     <use x="159.033203" xlink:href="#DejaVuSans-39"/>
     <use x="222.65625" xlink:href="#DejaVuSans-30"/>
     <use x="286.279297" xlink:href="#DejaVuSans-35"/>
    </g>
   </g>
   <g id="text_80">
    <!-- 3.6546 -->
    <g transform="translate(602.44721 271.672942)scale(0.06 -0.06)">
     <use xlink:href="#DejaVuSans-33"/>
     <use x="63.623047" xlink:href="#DejaVuSans-2e"/>
     <use x="95.410156" xlink:href="#DejaVuSans-36"/>
     <use x="159.033203" xlink:href="#DejaVuSans-35"/>
     <use x="222.65625" xlink:href="#DejaVuSans-34"/>
     <use x="286.279297" xlink:href="#DejaVuSans-36"/>
    </g>
   </g>
   <g id="text_81">
    <!-- 1.7028 -->
    <g transform="translate(594.475186 252.308277)scale(0.06 -0.06)">
     <use xlink:href="#DejaVuSans-31"/>
     <use x="63.623047" xlink:href="#DejaVuSans-2e"/>
     <use x="95.410156" xlink:href="#DejaVuSans-37"/>
     <use x="159.033203" xlink:href="#DejaVuSans-30"/>
     <use x="222.65625" xlink:href="#DejaVuSans-32"/>
     <use x="286.279297" xlink:href="#DejaVuSans-38"/>
    </g>
   </g>
   <g id="text_82">
    <!-- 1.8252 -->
    <g transform="translate(594.975085 232.943611)scale(0.06 -0.06)">
     <use xlink:href="#DejaVuSans-31"/>
     <use x="63.623047" xlink:href="#DejaVuSans-2e"/>
     <use x="95.410156" xlink:href="#DejaVuSans-38"/>
     <use x="159.033203" xlink:href="#DejaVuSans-32"/>
     <use x="222.65625" xlink:href="#DejaVuSans-35"/>
     <use x="286.279297" xlink:href="#DejaVuSans-32"/>
    </g>
   </g>
   <g id="text_83">
    <!-- 0.0389 -->
    <g transform="translate(587.678979 213.578946)scale(0.06 -0.06)">
     <use xlink:href="#DejaVuSans-30"/>
     <use x="63.623047" xlink:href="#DejaVuSans-2e"/>
     <use x="95.410156" xlink:href="#DejaVuSans-30"/>
     <use x="159.033203" xlink:href="#DejaVuSans-33"/>
     <use x="222.65625" xlink:href="#DejaVuSans-38"/>
     <use x="286.279297" xlink:href="#DejaVuSans-39"/>
    </g>
   </g>
   <g id="text_84">
    <!-- 0.0395 -->
    <g transform="translate(587.681258 194.21428)scale(0.06 -0.06)">
     <use xlink:href="#DejaVuSans-30"/>
     <use x="63.623047" xlink:href="#DejaVuSans-2e"/>
     <use x="95.410156" xlink:href="#DejaVuSans-30"/>
     <use x="159.033203" xlink:href="#DejaVuSans-33"/>
     <use x="222.65625" xlink:href="#DejaVuSans-39"/>
     <use x="286.279297" xlink:href="#DejaVuSans-35"/>
    </g>
   </g>
   <g id="text_85">
    <!-- 5.4287 -->
    <g transform="translate(609.693294 174.849615)scale(0.06 -0.06)">
     <use xlink:href="#DejaVuSans-35"/>
     <use x="63.623047" xlink:href="#DejaVuSans-2e"/>
     <use x="95.410156" xlink:href="#DejaVuSans-34"/>
     <use x="159.033203" xlink:href="#DejaVuSans-32"/>
     <use x="222.65625" xlink:href="#DejaVuSans-38"/>
     <use x="286.279297" xlink:href="#DejaVuSans-37"/>
    </g>
   </g>
   <g id="text_86">
    <!-- 5.3339 -->
    <g transform="translate(609.306182 155.484949)scale(0.06 -0.06)">
     <use xlink:href="#DejaVuSans-35"/>
     <use x="63.623047" xlink:href="#DejaVuSans-2e"/>
     <use x="95.410156" xlink:href="#DejaVuSans-33"/>
     <use x="159.033203" xlink:href="#DejaVuSans-33"/>
     <use x="222.65625" xlink:href="#DejaVuSans-33"/>
     <use x="286.279297" xlink:href="#DejaVuSans-39"/>
    </g>
   </g>
   <g id="text_87">
    <!-- 0.5871 -->
    <g transform="translate(589.918084 136.120284)scale(0.06 -0.06)">
     <use xlink:href="#DejaVuSans-30"/>
     <use x="63.623047" xlink:href="#DejaVuSans-2e"/>
     <use x="95.410156" xlink:href="#DejaVuSans-35"/>
     <use x="159.033203" xlink:href="#DejaVuSans-38"/>
     <use x="222.65625" xlink:href="#DejaVuSans-37"/>
     <use x="286.279297" xlink:href="#DejaVuSans-31"/>
    </g>
   </g>
   <g id="text_88">
    <!-- 0.6331 -->
    <g transform="translate(590.105768 116.755618)scale(0.06 -0.06)">
     <use xlink:href="#DejaVuSans-30"/>
     <use x="63.623047" xlink:href="#DejaVuSans-2e"/>
     <use x="95.410156" xlink:href="#DejaVuSans-36"/>
     <use x="159.033203" xlink:href="#DejaVuSans-33"/>
     <use x="222.65625" xlink:href="#DejaVuSans-33"/>
     <use x="286.279297" xlink:href="#DejaVuSans-31"/>
    </g>
   </g>
   <g id="text_89">
    <!-- 19.6049 -->
    <g transform="translate(667.594971 97.390953)scale(0.06 -0.06)">
     <use xlink:href="#DejaVuSans-31"/>
     <use x="63.623047" xlink:href="#DejaVuSans-39"/>
     <use x="127.246094" xlink:href="#DejaVuSans-2e"/>
     <use x="159.033203" xlink:href="#DejaVuSans-36"/>
     <use x="222.65625" xlink:href="#DejaVuSans-30"/>
     <use x="286.279297" xlink:href="#DejaVuSans-34"/>
     <use x="349.902344" xlink:href="#DejaVuSans-39"/>
    </g>
   </g>
   <g id="text_90">
    <!-- Times by move generator -->
    <defs>
     <path d="M 48.6875 27.296875 
Q 48.6875 37.203125 44.609375 42.84375 
Q 40.53125 48.484375 33.40625 48.484375 
Q 26.265625 48.484375 22.1875 42.84375 
Q 18.109375 37.203125 18.109375 27.296875 
Q 18.109375 17.390625 22.1875 11.75 
Q 26.265625 6.109375 33.40625 6.109375 
Q 40.53125 6.109375 44.609375 11.75 
Q 48.6875 17.390625 48.6875 27.296875 
z
M 18.109375 46.390625 
Q 20.953125 51.265625 25.265625 53.625 
Q 29.59375 56 35.59375 56 
Q 45.5625 56 51.78125 48.09375 
Q 58.015625 40.1875 58.015625 27.296875 
Q 58.015625 14.40625 51.78125 6.484375 
Q 45.5625 -1.421875 35.59375 -1.421875 
Q 29.59375 -1.421875 25.265625 0.953125 
Q 20.953125 3.328125 18.109375 8.203125 
L 18.109375 0 
L 9.078125 0 
L 9.078125 75.984375 
L 18.109375 75.984375 
z
" id="DejaVuSans-62"/>
     <path d="M 32.171875 -5.078125 
Q 28.375 -14.84375 24.75 -17.8125 
Q 21.140625 -20.796875 15.09375 -20.796875 
L 7.90625 -20.796875 
L 7.90625 -13.28125 
L 13.1875 -13.28125 
Q 16.890625 -13.28125 18.9375 -11.515625 
Q 21 -9.765625 23.484375 -3.21875 
L 25.09375 0.875 
L 2.984375 54.6875 
L 12.5 54.6875 
L 29.59375 11.921875 
L 46.6875 54.6875 
L 56.203125 54.6875 
z
" id="DejaVuSans-79"/>
     <path d="M 30.609375 48.390625 
Q 23.390625 48.390625 19.1875 42.75 
Q 14.984375 37.109375 14.984375 27.296875 
Q 14.984375 17.484375 19.15625 11.84375 
Q 23.34375 6.203125 30.609375 6.203125 
Q 37.796875 6.203125 41.984375 11.859375 
Q 46.1875 17.53125 46.1875 27.296875 
Q 46.1875 37.015625 41.984375 42.703125 
Q 37.796875 48.390625 30.609375 48.390625 
z
M 30.609375 56 
Q 42.328125 56 49.015625 48.375 
Q 55.71875 40.765625 55.71875 27.296875 
Q 55.71875 13.875 49.015625 6.21875 
Q 42.328125 -1.421875 30.609375 -1.421875 
Q 18.84375 -1.421875 12.171875 6.21875 
Q 5.515625 13.875 5.515625 27.296875 
Q 5.515625 40.765625 12.171875 48.375 
Q 18.84375 56 30.609375 56 
z
" id="DejaVuSans-6f"/>
     <path d="M 2.984375 54.6875 
L 12.5 54.6875 
L 29.59375 8.796875 
L 46.6875 54.6875 
L 56.203125 54.6875 
L 35.6875 0 
L 23.484375 0 
z
" id="DejaVuSans-76"/>
     <path d="M 45.40625 27.984375 
Q 45.40625 37.75 41.375 43.109375 
Q 37.359375 48.484375 30.078125 48.484375 
Q 22.859375 48.484375 18.828125 43.109375 
Q 14.796875 37.75 14.796875 27.984375 
Q 14.796875 18.265625 18.828125 12.890625 
Q 22.859375 7.515625 30.078125 7.515625 
Q 37.359375 7.515625 41.375 12.890625 
Q 45.40625 18.265625 45.40625 27.984375 
z
M 54.390625 6.78125 
Q 54.390625 -7.171875 48.1875 -13.984375 
Q 42 -20.796875 29.203125 -20.796875 
Q 24.46875 -20.796875 20.265625 -20.09375 
Q 16.0625 -19.390625 12.109375 -17.921875 
L 12.109375 -9.1875 
Q 16.0625 -11.328125 19.921875 -12.34375 
Q 23.78125 -13.375 27.78125 -13.375 
Q 36.625 -13.375 41.015625 -8.765625 
Q 45.40625 -4.15625 45.40625 5.171875 
L 45.40625 9.625 
Q 42.625 4.78125 38.28125 2.390625 
Q 33.9375 0 27.875 0 
Q 17.828125 0 11.671875 7.65625 
Q 5.515625 15.328125 5.515625 27.984375 
Q 5.515625 40.671875 11.671875 48.328125 
Q 17.828125 56 27.875 56 
Q 33.9375 56 38.28125 53.609375 
Q 42.625 51.21875 45.40625 46.390625 
L 45.40625 54.6875 
L 54.390625 54.6875 
z
" id="DejaVuSans-67"/>
     <path d="M 41.109375 46.296875 
Q 39.59375 47.171875 37.8125 47.578125 
Q 36.03125 48 33.890625 48 
Q 26.265625 48 22.1875 43.046875 
Q 18.109375 38.09375 18.109375 28.8125 
L 18.109375 0 
L 9.078125 0 
L 9.078125 54.6875 
L 18.109375 54.6875 
L 18.109375 46.1875 
Q 20.953125 51.171875 25.484375 53.578125 
Q 30.03125 56 36.53125 56 
Q 37.453125 56 38.578125 55.875 
Q 39.703125 55.765625 41.0625 55.515625 
z
" id="DejaVuSans-72"/>
     <path d="M 34.28125 27.484375 
Q 23.390625 27.484375 19.1875 25 
Q 14.984375 22.515625 14.984375 16.5 
Q 14.984375 11.71875 18.140625 8.90625 
Q 21.296875 6.109375 26.703125 6.109375 
Q 34.1875 6.109375 38.703125 11.40625 
Q 43.21875 16.703125 43.21875 25.484375 
L 43.21875 27.484375 
z
M 52.203125 31.203125 
L 52.203125 0 
L 43.21875 0 
L 43.21875 8.296875 
Q 40.140625 3.328125 35.546875 0.953125 
Q 30.953125 -1.421875 24.3125 -1.421875 
Q 15.921875 -1.421875 10.953125 3.296875 
Q 6 8.015625 6 15.921875 
Q 6 25.140625 12.171875 29.828125 
Q 18.359375 34.515625 30.609375 34.515625 
L 43.21875 34.515625 
L 43.21875 35.40625 
Q 43.21875 41.609375 39.140625 45 
Q 35.0625 48.390625 27.6875 48.390625 
Q 23 48.390625 18.546875 47.265625 
Q 14.109375 46.140625 10.015625 43.890625 
L 10.015625 52.203125 
Q 14.9375 54.109375 19.578125 55.046875 
Q 24.21875 56 28.609375 56 
Q 40.484375 56 46.34375 49.84375 
Q 52.203125 43.703125 52.203125 31.203125 
z
" id="DejaVuSans-61"/>
    </defs>
    <g transform="translate(613.740937 64.56)scale(0.12 -0.12)">
     <use xlink:href="#DejaVuSans-54"/>
     <use x="61.037109" xlink:href="#DejaVuSans-69"/>
     <use x="88.820312" xlink:href="#DejaVuSans-6d"/>
     <use x="186.232422" xlink:href="#DejaVuSans-65"/>
     <use x="247.755859" xlink:href="#DejaVuSans-73"/>
     <use x="299.855469" xlink:href="#DejaVuSans-20"/>
     <use x="331.642578" xlink:href="#DejaVuSans-62"/>
     <use x="395.119141" xlink:href="#DejaVuSans-79"/>
     <use x="454.298828" xlink:href="#DejaVuSans-20"/>
     <use x="486.085938" xlink:href="#DejaVuSans-6d"/>
     <use x="583.498047" xlink:href="#DejaVuSans-6f"/>
     <use x="644.679688" xlink:href="#DejaVuSans-76"/>
     <use x="703.859375" xlink:href="#DejaVuSans-65"/>
     <use x="765.382812" xlink:href="#DejaVuSans-20"/>
     <use x="797.169922" xlink:href="#DejaVuSans-67"/>
     <use x="860.646484" xlink:href="#DejaVuSans-65"/>
     <use x="922.169922" xlink:href="#DejaVuSans-6e"/>
     <use x="985.548828" xlink:href="#DejaVuSans-65"/>
     <use x="1047.072266" xlink:href="#DejaVuSans-72"/>
     <use x="1088.185547" xlink:href="#DejaVuSans-61"/>
     <use x="1149.464844" xlink:href="#DejaVuSans-74"/>
     <use x="1188.673828" xlink:href="#DejaVuSans-6f"/>
     <use x="1249.855469" xlink:href="#DejaVuSans-72"/>
    </g>
   </g>
   <g id="legend_1">
    <g id="patch_61">
     <path d="M 706.706562 630.04 
L 787.88 630.04 
Q 789.88 630.04 789.88 628.04 
L 789.88 599.68375 
Q 789.88 597.68375 787.88 597.68375 
L 706.706562 597.68375 
Q 704.706562 597.68375 704.706562 599.68375 
L 704.706562 628.04 
Q 704.706562 630.04 706.706562 630.04 
z
" style="fill:#ffffff;opacity:0.8;stroke:#cccccc;stroke-linejoin:miter;"/>
    </g>
    <g id="patch_62">
     <path d="M 708.706562 609.282188 
L 728.706562 609.282188 
L 728.706562 602.282188 
L 708.706562 602.282188 
z
" style="fill:#ff0000;"/>
    </g>
    <g id="text_91">
     <!-- shakmaty -->
     <defs>
      <path d="M 54.890625 33.015625 
L 54.890625 0 
L 45.90625 0 
L 45.90625 32.71875 
Q 45.90625 40.484375 42.875 44.328125 
Q 39.84375 48.1875 33.796875 48.1875 
Q 26.515625 48.1875 22.3125 43.546875 
Q 18.109375 38.921875 18.109375 30.90625 
L 18.109375 0 
L 9.078125 0 
L 9.078125 75.984375 
L 18.109375 75.984375 
L 18.109375 46.1875 
Q 21.34375 51.125 25.703125 53.5625 
Q 30.078125 56 35.796875 56 
Q 45.21875 56 50.046875 50.171875 
Q 54.890625 44.34375 54.890625 33.015625 
z
" id="DejaVuSans-68"/>
     </defs>
     <g transform="translate(736.706562 609.282188)scale(0.1 -0.1)">
      <use xlink:href="#DejaVuSans-73"/>
      <use x="52.099609" xlink:href="#DejaVuSans-68"/>
      <use x="115.478516" xlink:href="#DejaVuSans-61"/>
      <use x="176.757812" xlink:href="#DejaVuSans-6b"/>
      <use x="234.667969" xlink:href="#DejaVuSans-6d"/>
      <use x="332.080078" xlink:href="#DejaVuSans-61"/>
      <use x="393.359375" xlink:href="#DejaVuSans-74"/>
      <use x="432.568359" xlink:href="#DejaVuSans-79"/>
     </g>
    </g>
    <g id="patch_63">
     <path d="M 708.706562 623.960313 
L 728.706562 623.960313 
L 728.706562 616.960313 
L 708.706562 616.960313 
z
" style="fill:#008000;"/>
    </g>
    <g id="text_92">
     <!-- chess -->
     <defs>
      <path d="M 48.78125 52.59375 
L 48.78125 44.1875 
Q 44.96875 46.296875 41.140625 47.34375 
Q 37.3125 48.390625 33.40625 48.390625 
Q 24.65625 48.390625 19.8125 42.84375 
Q 14.984375 37.3125 14.984375 27.296875 
Q 14.984375 17.28125 19.8125 11.734375 
Q 24.65625 6.203125 33.40625 6.203125 
Q 37.3125 6.203125 41.140625 7.25 
Q 44.96875 8.296875 48.78125 10.40625 
L 48.78125 2.09375 
Q 45.015625 0.34375 40.984375 -0.53125 
Q 36.96875 -1.421875 32.421875 -1.421875 
Q 20.0625 -1.421875 12.78125 6.34375 
Q 5.515625 14.109375 5.515625 27.296875 
Q 5.515625 40.671875 12.859375 48.328125 
Q 20.21875 56 33.015625 56 
Q 37.15625 56 41.109375 55.140625 
Q 45.0625 54.296875 48.78125 52.59375 
z
" id="DejaVuSans-63"/>
     </defs>
     <g transform="translate(736.706562 623.960313)scale(0.1 -0.1)">
      <use xlink:href="#DejaVuSans-63"/>
      <use x="54.980469" xlink:href="#DejaVuSans-68"/>
      <use x="118.359375" xlink:href="#DejaVuSans-65"/>
      <use x="179.882812" xlink:href="#DejaVuSans-73"/>
      <use x="231.982422" xlink:href="#DejaVuSans-73"/>
     </g>
    </g>
   </g>
  </g>
 </g>
 <defs>
  <clipPath id="p6e0e5c6e34">
   <rect height="564.48" width="207.36" x="587.52" y="70.56"/>
  </clipPath>
 </defs>
</svg>
